<svg width="24" height="24" viewBox="0 0 24 24" fill="none" xmlns="http://www.w3.org/2000/svg">
<path d="M8.9 5.17001C9.40142 4.71569 9.99557 4.37576 10.6413 4.17374C11.2871 3.97172 11.9691 3.91244 12.64 4.00001C13.7965 4.18778 14.8462 4.78702 15.5959 5.68739C16.3456 6.58776 16.7448 7.72864 16.72 8.90001V13.4C16.7223 13.6007 16.756 13.7998 16.82 13.99L20.42 17.59C20.616 17.429 20.7703 17.2232 20.87 16.99C20.9959 16.6923 21.0299 16.3636 20.9675 16.0464C20.9051 15.7292 20.7493 15.4379 20.52 15.21L18.72 13.4V8.94001C18.7439 7.28383 18.1679 5.67492 17.0981 4.41034C16.0284 3.14577 14.5372 2.31094 12.9 2.06001C11.9497 1.9327 10.9831 2.01053 10.0655 2.28825C9.14777 2.56597 8.30025 3.03714 7.58 3.67001C7.37645 3.83871 7.1828 4.01901 7 4.21001L8.47 5.64001C8.60275 5.47397 8.7464 5.31696 8.9 5.17001Z" fill="#222C4F"/>
<path d="M14 16.86L13.17 16H5.51001L6.69001 14.82C6.87717 14.6339 7.02567 14.4127 7.12693 14.169C7.22819 13.9253 7.28022 13.6639 7.28001 13.4V10.11L5.28001 8.11C5.26979 8.30653 5.26979 8.50347 5.28001 8.7V13.4L3.48001 15.21C3.24902 15.438 3.09135 15.7298 3.02721 16.0479C2.96306 16.3661 2.99536 16.6962 3.11996 16.9958C3.24457 17.2955 3.4558 17.5512 3.7266 17.7301C3.99741 17.909 4.31546 18.003 4.64001 18H8.00001V18.34C8.04672 19.3552 8.49396 20.3105 9.24373 20.9965C9.99351 21.6826 10.9847 22.0434 12 22C12.9446 22.0429 13.8723 21.7393 14.6089 21.1464C15.3454 20.5534 15.8401 19.712 16 18.78L15.17 18L14 16.86ZM12 20C11.517 20.0341 11.0395 19.8805 10.6669 19.5713C10.2944 19.2621 10.0555 18.821 10 18.34V18H14V18.34C13.9445 18.821 13.7057 19.2621 13.3331 19.5713C12.9605 19.8805 12.483 20.0341 12 20Z" fill="#222C4F"/>
<path d="M20.71 19.29L19.41 18L17.41 16L7.89 6.47L6.42 5L4.71 3.29C4.61676 3.19676 4.50607 3.1228 4.38425 3.07234C4.26243 3.02188 4.13186 2.99591 4 2.99591C3.86814 2.99591 3.73758 3.02188 3.61575 3.07234C3.49393 3.1228 3.38324 3.19676 3.29 3.29C3.1017 3.47831 2.99591 3.7337 2.99591 4C2.99591 4.2663 3.1017 4.5217 3.29 4.71L5.53 7L7.28 8.7L14.59 16L14.66 16.07L16 17.41L16.59 18L19.29 20.71C19.383 20.8037 19.4936 20.8781 19.6154 20.9289C19.7373 20.9797 19.868 21.0058 20 21.0058C20.132 21.0058 20.2627 20.9797 20.3846 20.9289C20.5064 20.8781 20.617 20.8037 20.71 20.71C20.8037 20.617 20.8781 20.5064 20.9289 20.3846C20.9797 20.2627 21.0058 20.132 21.0058 20C21.0058 19.868 20.9797 19.7373 20.9289 19.6154C20.8781 19.4936 20.8037 19.383 20.71 19.29Z" fill="#222C4F"/>
</svg>
