<svg width="24" height="24" viewBox="0 0 24 24" fill="none" xmlns="http://www.w3.org/2000/svg">
<path d="M20.52 15.21L18.72 13.4V8.94C18.7439 7.28382 18.1679 5.67491 17.0981 4.41034C16.0284 3.14576 14.5372 2.31094 12.9 2.06C11.9498 1.93487 10.9839 2.01382 10.0666 2.29158C9.14934 2.56934 8.30187 3.03952 7.58072 3.67076C6.85958 4.302 6.28134 5.07978 5.8846 5.9522C5.48787 6.82461 5.28175 7.77161 5.28 8.73V13.4L3.48 15.21C3.2539 15.4399 3.10058 15.7313 3.0392 16.0478C2.97781 16.3643 3.01109 16.6919 3.13487 16.9896C3.25866 17.2874 3.46745 17.542 3.73515 17.7217C4.00285 17.9014 4.31758 17.9982 4.64 18H8V18.34C8.04671 19.3552 8.49395 20.3105 9.24372 20.9965C9.9935 21.6826 10.9847 22.0434 12 22C13.0153 22.0434 14.0065 21.6826 14.7563 20.9965C15.506 20.3105 15.9533 19.3552 16 18.34V18H19.36C19.6824 17.9982 19.9971 17.9014 20.2648 17.7217C20.5325 17.542 20.7413 17.2874 20.8651 16.9896C20.9889 16.6919 21.0222 16.3643 20.9608 16.0478C20.8994 15.7313 20.7461 15.4399 20.52 15.21ZM14 18.34C13.9445 18.821 13.7056 19.2621 13.3331 19.5713C12.9605 19.8805 12.483 20.0341 12 20C11.517 20.0341 11.0395 19.8805 10.6669 19.5713C10.2944 19.2621 10.0555 18.821 10 18.34V18H14V18.34ZM5.51 16L6.69 14.82C6.87717 14.6339 7.02566 14.4127 7.12692 14.169C7.22818 13.9253 7.28021 13.6639 7.28 13.4V8.73C7.28054 8.0554 7.42538 7.38872 7.70479 6.77471C7.9842 6.1607 8.39172 5.61355 8.9 5.17C9.40142 4.71568 9.99557 4.37575 10.6413 4.17373C11.2871 3.97172 11.9691 3.91244 12.64 4C13.7965 4.18778 14.8462 4.78701 15.5959 5.68738C16.3456 6.58775 16.7448 7.72864 16.72 8.9V13.4C16.7185 13.6632 16.7689 13.9241 16.8685 14.1678C16.968 14.4115 17.1146 14.6331 17.3 14.82L18.49 16H5.51Z" fill="#222C4F"/>
</svg>
