<svg width="17" height="16" viewBox="0 0 17 16" fill="none" xmlns="http://www.w3.org/2000/svg">
<path d="M11.8361 6.7561C11.8357 6.8459 11.8173 6.93471 11.7817 7.01719C11.7462 7.09967 11.6944 7.17413 11.6294 7.23609L8.96275 9.80943C8.83813 9.93158 8.67058 10 8.49608 10C8.32158 10 8.15403 9.93158 8.02941 9.80943L5.36275 7.14276C5.30059 7.0806 5.25128 7.00681 5.21764 6.92559C5.184 6.84438 5.16669 6.75733 5.16669 6.66943C5.16669 6.58152 5.184 6.49448 5.21764 6.41326C5.25128 6.33205 5.30059 6.25825 5.36275 6.1961C5.42491 6.13394 5.4987 6.08463 5.57992 6.05099C5.66113 6.01735 5.74818 6.00003 5.83608 6.00003C5.92399 6.00003 6.01103 6.01735 6.09225 6.05099C6.17346 6.08463 6.24726 6.13394 6.30941 6.1961L8.50275 8.3961L10.7027 6.2761C10.8277 6.15193 10.9966 6.08223 11.1727 6.08223C11.3489 6.08223 11.5178 6.15193 11.6427 6.2761C11.7053 6.33918 11.7547 6.41414 11.7879 6.49657C11.8211 6.579 11.8375 6.66724 11.8361 6.7561Z" fill="#566073"/>
</svg>
