<svg width="24" height="24" viewBox="0 0 24 24" fill="none" xmlns="http://www.w3.org/2000/svg">
<path d="M8.64001 5.23001C8.53896 5.1458 8.42229 5.08236 8.29669 5.04332C8.17108 5.00427 8.03901 4.99039 7.90803 5.00247C7.77706 5.01454 7.64975 5.05234 7.5334 5.11369C7.41706 5.17504 7.31395 5.25875 7.23001 5.36001L2.23001 11.36C2.08292 11.5389 2.00252 11.7634 2.00252 11.995C2.00252 12.2266 2.08292 12.4511 2.23001 12.63L7.06001 18.63C7.15412 18.746 7.27304 18.8395 7.40802 18.9035C7.543 18.9675 7.69061 19.0005 7.84001 19C8.02924 19.0007 8.21477 18.9476 8.37505 18.847C8.53533 18.7464 8.66377 18.6024 8.74546 18.4317C8.82714 18.261 8.85871 18.0706 8.83651 17.8827C8.8143 17.6947 8.73923 17.517 8.62001 17.37L4.29001 12L8.77001 6.64001C8.85421 6.53896 8.91765 6.42229 8.95669 6.29669C8.99574 6.17108 9.00962 6.03901 8.99754 5.90803C8.98547 5.77706 8.94767 5.64975 8.88632 5.5334C8.82497 5.41706 8.74126 5.31395 8.64001 5.23001Z" fill="#222C4F"/>
<path d="M21.78 11.37L17 5.37C16.9175 5.26728 16.8155 5.18187 16.6998 5.1187C16.5842 5.05552 16.4572 5.01583 16.3262 5.00189C16.1952 4.98795 16.0627 5.00004 15.9363 5.03747C15.81 5.07491 15.6923 5.13694 15.59 5.22C15.4873 5.30253 15.4019 5.40454 15.3387 5.52017C15.2755 5.63581 15.2358 5.76279 15.2219 5.89382C15.208 6.02485 15.22 6.15734 15.2575 6.28368C15.2949 6.41002 15.3569 6.52772 15.44 6.63L19.71 12L15.23 17.37C15.1458 17.4711 15.0824 17.5877 15.0433 17.7133C15.0043 17.8389 14.9904 17.971 15.0025 18.102C15.0145 18.233 15.0523 18.3603 15.1137 18.4766C15.175 18.593 15.2587 18.6961 15.36 18.78C15.5413 18.9255 15.7676 19.0033 16 19C16.1469 19.0002 16.2921 18.9681 16.4252 18.9059C16.5582 18.8437 16.676 18.7529 16.77 18.64L21.77 12.64C21.9185 12.4622 22.0007 12.2384 22.0025 12.0068C22.0043 11.7752 21.9257 11.5501 21.78 11.37Z" fill="#222C4F"/>
</svg>
