<svg width="24" height="24" viewBox="0 0 24 24" fill="none" xmlns="http://www.w3.org/2000/svg">
<path d="M19.2 7.20088H15.2V5.86497C15.1812 5.35286 14.9602 4.86909 14.5853 4.5197C14.2104 4.17031 13.7122 3.98382 13.2 4.0011H10.8C10.2878 3.98382 9.78965 4.17031 9.41474 4.5197C9.03984 4.86909 8.81877 5.35286 8.8 5.86497V7.20088H4.8C4.58783 7.20088 4.38434 7.28516 4.23431 7.43518C4.08429 7.5852 4 7.78867 4 8.00083C4 8.21299 4.08429 8.41645 4.23431 8.56647C4.38434 8.71649 4.58783 8.80077 4.8 8.80077H5.6V17.6002C5.6 18.2366 5.85286 18.847 6.30294 19.2971C6.75303 19.7472 7.36348 20 8 20H16C16.6365 20 17.247 19.7472 17.6971 19.2971C18.1471 18.847 18.4 18.2366 18.4 17.6002V8.80077H19.2C19.4122 8.80077 19.6157 8.71649 19.7657 8.56647C19.9157 8.41645 20 8.21299 20 8.00083C20 7.78867 19.9157 7.5852 19.7657 7.43518C19.6157 7.28516 19.4122 7.20088 19.2 7.20088ZM10.4 5.86497C10.4 5.73698 10.568 5.60099 10.8 5.60099H13.2C13.432 5.60099 13.6 5.73698 13.6 5.86497V7.20088H10.4V5.86497ZM16.8 17.6002C16.8 17.8123 16.7157 18.0158 16.5657 18.1658C16.4157 18.3158 16.2122 18.4001 16 18.4001H8C7.78783 18.4001 7.58434 18.3158 7.43431 18.1658C7.28429 18.0158 7.2 17.8123 7.2 17.6002V8.80077H16.8V17.6002Z" fill="#222C4F"/>
</svg>
