<svg width="24" height="24" viewBox="0 0 24 24" fill="none" xmlns="http://www.w3.org/2000/svg">
<path d="M6.99591 10.1341C6.99642 10.2688 7.02415 10.402 7.07742 10.5258C7.13069 10.6495 7.20841 10.7612 7.30591 10.8541L11.3059 14.7141C11.4928 14.8974 11.7442 15 12.0059 15C12.2677 15 12.519 14.8974 12.7059 14.7141L16.7059 10.7141C16.7991 10.6209 16.8731 10.5102 16.9236 10.3884C16.974 10.2666 17 10.136 17 10.0041C17 9.87227 16.974 9.7417 16.9236 9.61988C16.8731 9.49806 16.7991 9.38737 16.7059 9.29413C16.6127 9.20089 16.502 9.12693 16.3802 9.07647C16.2583 9.02601 16.1278 9.00004 15.9959 9.00004C15.864 9.00004 15.7335 9.02601 15.6117 9.07647C15.4898 9.12693 15.3791 9.20089 15.2859 9.29413L11.9959 12.5941L8.69591 9.41413C8.50854 9.22788 8.2551 9.12333 7.99091 9.12333C7.72672 9.12333 7.47327 9.22788 7.28591 9.41413C7.19202 9.50875 7.118 9.62119 7.0682 9.74484C7.0184 9.86849 6.99382 10.0008 6.99591 10.1341Z" fill="#222C4F"/>
</svg>
