<svg width="24" height="24" viewBox="0 0 24 24" fill="none" xmlns="http://www.w3.org/2000/svg">
<path d="M5.0042 19.9422H5.0942L9.2642 19.5622C9.721 19.5167 10.1482 19.3155 10.4742 18.9922L19.4742 9.99224C19.8235 9.62321 20.0123 9.13075 19.9992 8.62278C19.9861 8.1148 19.7721 7.63275 19.4042 7.28224L16.6642 4.54224C16.3066 4.20634 15.838 4.0136 15.3475 4.00069C14.8571 3.98779 14.379 4.15561 14.0042 4.47224L5.0042 13.4722C4.68097 13.7982 4.47971 14.2254 4.4342 14.6822L4.0042 18.8522C3.99073 18.9987 4.00974 19.1463 4.05986 19.2846C4.10999 19.4229 4.19001 19.5484 4.2942 19.6522C4.38764 19.7449 4.49846 19.8182 4.6203 19.868C4.74213 19.9178 4.8726 19.943 5.0042 19.9422ZM15.2742 5.94224L18.0042 8.67224L16.0042 10.6222L13.3242 7.94224L15.2742 5.94224ZM6.3742 14.8522L12.0042 9.26224L14.7042 11.9622L9.1042 17.5622L6.1042 17.8422L6.3742 14.8522Z" fill="#222C4F"/>
</svg>
