<svg width="24" height="24" viewBox="0 0 24 24" fill="none" xmlns="http://www.w3.org/2000/svg">
<path fill-rule="evenodd" clip-rule="evenodd" d="M11.11 23C10.994 22.9999 10.879 22.9796 10.77 22.94C10.5597 22.863 10.3814 22.7177 10.2635 22.5273C10.1457 22.3369 10.0951 22.1125 10.12 21.89L10.89 14.8H4.99998C4.81831 14.8003 4.64 14.7511 4.4842 14.6576C4.32839 14.5642 4.20098 14.4301 4.11565 14.2697C4.03032 14.1093 3.99029 13.9287 3.99986 13.7473C4.00944 13.5659 4.06825 13.3905 4.16998 13.24L12.06 1.44001C12.1848 1.25534 12.3677 1.11766 12.5796 1.04881C12.7916 0.979969 13.0205 0.983908 13.23 1.06001C13.4314 1.13477 13.6033 1.27239 13.7204 1.4525C13.8375 1.6326 13.8934 1.84562 13.88 2.06001L13.11 9.20001H19C19.1817 9.19973 19.36 9.24895 19.5158 9.34238C19.6716 9.43581 19.799 9.56992 19.8843 9.7303C19.9696 9.89068 20.0097 10.0713 20.0001 10.2527C19.9905 10.4341 19.9317 10.6095 19.83 10.76L11.94 22.56C11.8483 22.6957 11.7246 22.8068 11.5799 22.8835C11.4351 22.9603 11.2738 23.0003 11.11 23ZM12 12.8H6.86998L11.45 5.94001L11 10.09C10.9845 10.2303 10.9988 10.3722 11.042 10.5065C11.0853 10.6409 11.1565 10.7645 11.251 10.8694C11.3454 10.9742 11.461 11.0579 11.5901 11.1149C11.7192 11.1718 11.8589 11.2009 12 11.2H17.13L12.54 18.06L12.99 13.91C13.0057 13.7697 12.9916 13.6277 12.9485 13.4932C12.9054 13.3588 12.8344 13.235 12.74 13.13C12.6465 13.0264 12.5323 12.9435 12.4049 12.8867C12.2775 12.8299 12.1395 12.8003 12 12.8Z" fill="#222C4F"/>
<path d="M6.86998 12.8H12C12.1395 12.8003 12.2775 12.8299 12.4049 12.8867C12.5323 12.9435 12.6465 13.0264 12.74 13.13C12.8344 13.235 12.9054 13.3588 12.9485 13.4932C12.9916 13.6277 13.0057 13.7697 12.99 13.91L12.54 18.06L17.13 11.2H12C11.8589 11.2009 11.7192 11.1718 11.5901 11.1149C11.461 11.0579 11.3454 10.9742 11.251 10.8694C11.1565 10.7645 11.0853 10.6409 11.042 10.5065C10.9988 10.3722 10.9845 10.2303 11 10.09L11.45 5.94001L6.86998 12.8Z" fill="#222C4F"/>
</svg>
