<svg width="24" height="24" viewBox="0 0 24 24" fill="none" xmlns="http://www.w3.org/2000/svg">
<path d="M22 11.9878C22 11.3242 21.9466 10.6569 21.8326 10.004H12.6914V13.7636H17.9262C17.7089 14.9761 17.011 16.0487 15.9889 16.7303V19.1697H19.112C20.9459 17.4693 22 14.9582 22 11.9878Z" fill="#ADB9CA"/>
<path d="M12.6914 21.5266C15.3052 21.5266 17.5095 20.6621 19.1155 19.1697L15.9925 16.7303C15.1236 17.3258 14.0019 17.663 12.695 17.663C10.1666 17.663 8.02285 15.9447 7.25367 13.6344H4.03091V16.1492C5.67612 19.4459 9.02707 21.5266 12.6914 21.5266Z" fill="#ADB9CA"/>
<path d="M7.25011 13.6344C6.84416 12.4219 6.84416 11.1089 7.25011 9.8964V7.38167H4.03092C2.65636 10.1403 2.65636 13.3905 4.03092 16.1492L7.25011 13.6344Z" fill="#ADB9CA"/>
<path d="M12.6914 5.86423C14.0731 5.8427 15.4085 6.36646 16.4091 7.32786L19.1761 4.54049C17.424 2.88314 15.0987 1.97195 12.6914 2.00065C9.02707 2.00065 5.67612 4.08131 4.03091 7.38167L7.2501 9.89641C8.01573 7.58257 10.163 5.86423 12.6914 5.86423Z" fill="#ADB9CA"/>
</svg>
