<svg width="24" height="25" viewBox="0 0 24 25" fill="none" xmlns="http://www.w3.org/2000/svg">
<path d="M12 2.5C10.0222 2.5 8.08879 3.08649 6.4443 4.1853C4.79981 5.28412 3.51809 6.8459 2.76121 8.67317C2.00433 10.5004 1.8063 12.5111 2.19215 14.4509C2.578 16.3907 3.53041 18.1725 4.92894 19.5711C6.32746 20.9696 8.10929 21.922 10.0491 22.3079C11.9889 22.6937 13.9996 22.4957 15.8268 21.7388C17.6541 20.9819 19.2159 19.7002 20.3147 18.0557C21.4135 16.4112 22 14.4778 22 12.5C22 11.1868 21.7413 9.88642 21.2388 8.67317C20.7363 7.45991 19.9997 6.35752 19.0711 5.42893C18.1425 4.50035 17.0401 3.76375 15.8268 3.2612C14.6136 2.75866 13.3132 2.5 12 2.5ZM16.3 10.11L11.73 16.11C11.6368 16.231 11.5172 16.3291 11.3803 16.3967C11.2433 16.4643 11.0927 16.4996 10.94 16.5C10.7881 16.5008 10.638 16.467 10.5011 16.4012C10.3643 16.3353 10.2442 16.2392 10.15 16.12L7.71 13.01C7.62924 12.9063 7.5697 12.7876 7.53479 12.6609C7.49988 12.5341 7.49027 12.4017 7.50652 12.2713C7.52277 12.1408 7.56456 12.0148 7.6295 11.9005C7.69444 11.7862 7.78126 11.6858 7.885 11.605C8.09453 11.4419 8.36026 11.3687 8.62375 11.4015C8.75421 11.4178 8.8802 11.4596 8.99452 11.5245C9.10884 11.5894 9.20924 11.6763 9.29 11.78L10.92 13.86L14.7 8.86C14.7801 8.75494 14.8801 8.66669 14.9943 8.60029C15.1086 8.53388 15.2347 8.49062 15.3657 8.47298C15.4966 8.45534 15.6297 8.46365 15.7574 8.49746C15.8851 8.53126 16.0049 8.58989 16.11 8.67C16.2151 8.75011 16.3033 8.85012 16.3697 8.96433C16.4361 9.07855 16.4794 9.20472 16.497 9.33565C16.5147 9.46658 16.5063 9.5997 16.4725 9.72742C16.4387 9.85514 16.3801 9.97494 16.3 10.08V10.11Z" fill="#2AB532"/>
</svg>
