<svg width="24" height="24" viewBox="0 0 24 24" fill="none" xmlns="http://www.w3.org/2000/svg">
<path d="M16 11H10.34L11.59 9.68999C11.773 9.49771 11.8721 9.24061 11.8656 8.97524C11.859 8.70988 11.7473 8.45799 11.555 8.27499C11.3627 8.09199 11.1056 7.99287 10.8403 7.99944C10.5749 8.006 10.323 8.11771 10.14 8.30999L7.28 11.31C7.24662 11.3509 7.21652 11.3944 7.19 11.44C7.14384 11.4973 7.10674 11.5614 7.08 11.63C7.04485 11.7194 7.02458 11.814 7.02 11.91L7 12C7.00158 12.1307 7.02876 12.2598 7.08 12.38C7.12874 12.4992 7.20005 12.6078 7.29 12.7L10.29 15.7C10.383 15.7937 10.4936 15.8681 10.6154 15.9189C10.7373 15.9697 10.868 15.9958 11 15.9958C11.132 15.9958 11.2627 15.9697 11.3846 15.9189C11.5064 15.8681 11.617 15.7937 11.71 15.7C11.8037 15.607 11.8781 15.4964 11.9289 15.3746C11.9797 15.2527 12.0058 15.122 12.0058 14.99C12.0058 14.858 11.9797 14.7273 11.9289 14.6054C11.8781 14.4836 11.8037 14.373 11.71 14.28L10.41 13H16C16.2652 13 16.5196 12.8946 16.7071 12.7071C16.8946 12.5196 17 12.2652 17 12C17 11.7348 16.8946 11.4804 16.7071 11.2929C16.5196 11.1053 16.2652 11 16 11Z" fill="#222C4F"/>
</svg>
