<svg width="24" height="24" viewBox="0 0 24 24" fill="none" xmlns="http://www.w3.org/2000/svg">
<path d="M13.29 9.29L9.29 13.29C9.19627 13.383 9.12188 13.4936 9.07111 13.6154C9.02034 13.7373 8.9942 13.868 8.9942 14C8.9942 14.132 9.02034 14.2627 9.07111 14.3846C9.12188 14.5064 9.19627 14.617 9.29 14.71C9.38296 14.8037 9.49356 14.8781 9.61542 14.9289C9.73728 14.9797 9.86799 15.0058 10 15.0058C10.132 15.0058 10.2627 14.9797 10.3846 14.9289C10.5064 14.8781 10.617 14.8037 10.71 14.71L14.71 10.71C14.8983 10.5217 15.0041 10.2663 15.0041 10C15.0041 9.7337 14.8983 9.47831 14.71 9.29C14.5217 9.1017 14.2663 8.99591 14 8.99591C13.7337 8.99591 13.4783 9.1017 13.29 9.29Z" fill="#222C4F"/>
<path d="M12.28 17.4L11 18.67C10.2814 19.4104 9.31544 19.8605 8.28629 19.9342C7.25714 20.008 6.23684 19.7004 5.42 19.07C4.98827 18.7142 4.63597 18.2719 4.38584 17.7715C4.13571 17.2711 3.99333 16.7238 3.96788 16.165C3.94244 15.6061 4.0345 15.0482 4.23812 14.5271C4.44174 14.0061 4.75239 13.5335 5.15 13.14L6.57 11.71C6.66373 11.617 6.73812 11.5064 6.78889 11.3846C6.83966 11.2627 6.8658 11.132 6.8658 11C6.8658 10.868 6.83966 10.7373 6.78889 10.6154C6.73812 10.4936 6.66373 10.383 6.57 10.29C6.47704 10.1963 6.36644 10.1219 6.24458 10.0711C6.12272 10.0203 5.99201 9.9942 5.86 9.9942C5.72799 9.9942 5.59728 10.0203 5.47542 10.0711C5.35356 10.1219 5.24296 10.1963 5.15 10.29L3.88 11.57C2.81016 12.606 2.15259 13.995 2.02937 15.4792C1.90615 16.9633 2.32565 18.4418 3.21 19.64C3.73488 20.3209 4.39864 20.8824 5.15719 21.2871C5.91574 21.6917 6.75171 21.9304 7.60958 21.9871C8.46745 22.0439 9.32757 21.9174 10.1328 21.6162C10.9381 21.315 11.67 20.8459 12.28 20.24L13.7 18.82C13.8883 18.6317 13.9941 18.3763 13.9941 18.11C13.9941 17.8437 13.8883 17.5883 13.7 17.4C13.5117 17.2117 13.2563 17.1059 12.99 17.1059C12.7237 17.1059 12.4683 17.2117 12.28 17.4Z" fill="#222C4F"/>
<path d="M19.66 3.22001C18.4535 2.32647 16.963 1.90269 15.4668 2.02783C13.9707 2.15297 12.5713 2.81846 11.53 3.90001L10.45 5.00001C10.3265 5.08974 10.2233 5.2044 10.147 5.33656C10.0707 5.46872 10.023 5.61543 10.0069 5.7672C9.99092 5.91897 10.0069 6.07241 10.054 6.2176C10.101 6.36278 10.178 6.49647 10.28 6.61001C10.3729 6.70374 10.4835 6.77813 10.6054 6.8289C10.7273 6.87967 10.858 6.90581 10.99 6.90581C11.122 6.90581 11.2527 6.87967 11.3746 6.8289C11.4964 6.77813 11.607 6.70374 11.7 6.61001L13 5.30001C13.7146 4.55632 14.6794 4.10384 15.7081 4.02997C16.7369 3.95609 17.7565 4.26606 18.57 4.90001C19.0049 5.25581 19.36 5.69926 19.6121 6.20147C19.8643 6.70368 20.0077 7.25337 20.0332 7.81473C20.0587 8.3761 19.9656 8.93652 19.76 9.4595C19.5544 9.98248 19.2409 10.4563 18.84 10.85L17.42 12.28C17.3263 12.373 17.2519 12.4836 17.2011 12.6054C17.1503 12.7273 17.1242 12.858 17.1242 12.99C17.1242 13.122 17.1503 13.2527 17.2011 13.3746C17.2519 13.4964 17.3263 13.607 17.42 13.7C17.5129 13.7937 17.6236 13.8681 17.7454 13.9189C17.8673 13.9697 17.998 13.9958 18.13 13.9958C18.262 13.9958 18.3927 13.9697 18.5146 13.9189C18.6364 13.8681 18.747 13.7937 18.84 13.7L20.26 12.28C20.8641 11.6701 21.3318 10.9388 21.632 10.1345C21.9323 9.33028 22.0582 8.47141 22.0015 7.61481C21.9447 6.75821 21.7066 5.92345 21.303 5.1658C20.8993 4.40815 20.3393 3.74491 19.66 3.22001Z" fill="#222C4F"/>
</svg>
