<svg width="24" height="24" viewBox="0 0 24 24" fill="none" xmlns="http://www.w3.org/2000/svg">
<mask id="path-1-inside-1" fill="white">
<rect x="3" y="3" width="18" height="18" rx="1"/>
</mask>
<rect x="3" y="3" width="18" height="18" rx="1" stroke="#222C4F" stroke-width="4" mask="url(#path-1-inside-1)"/>
<path d="M16.2587 14H7.74133C7.33191 14 7.00001 14.4209 7.00001 14.94V15.06C7.00001 15.5791 7.33191 16 7.74133 16H16.2587C16.6681 16 17 15.5791 17 15.06V14.94C17 14.4209 16.6681 14 16.2587 14Z" fill="#222C4F"/>
<path d="M16.2587 8H7.74133C7.33191 8 7.00001 8.42085 7.00001 8.94V9.06C7.00001 9.57915 7.33191 10 7.74133 10H16.2587C16.6681 10 17 9.57915 17 9.06V8.94C17 8.42085 16.6681 8 16.2587 8Z" fill="#222C4F"/>
</svg>
