<svg width="44" height="28" viewBox="0 0 44 28" fill="none" xmlns="http://www.w3.org/2000/svg">
<path d="M22.2754 23.6608C24.8977 21.2455 26.5539 17.7951 26.5539 13.9997C26.5539 10.1353 24.8977 6.68491 22.2754 4.33865C19.9292 2.26842 16.8928 0.957275 13.5115 0.957275C6.26565 0.957275 0.400002 6.82293 0.400002 13.9997C0.400002 21.2455 6.26565 27.1112 13.5115 27.1112C16.8928 27.0422 19.9292 25.731 22.2754 23.6608Z" fill="#3362AB"/>
<path d="M22.2754 23.6615C24.8977 21.2462 26.5539 17.7958 26.5539 14.0004C26.5539 10.136 24.8977 6.68562 22.2754 4.33936" fill="#3362AB"/>
<path d="M22.2754 23.6615C24.8977 21.2462 26.5539 17.7958 26.5539 14.0004C26.5539 10.136 24.8977 6.68562 22.2754 4.33936" stroke="#3362AB" stroke-width="0.213717"/>
<path d="M31.0394 0.888916C27.658 0.888916 24.5527 2.20006 22.2754 4.27029C21.7924 4.68433 21.3783 5.16739 20.9643 5.65044H23.5866C23.9316 6.06448 24.2766 6.54754 24.5527 7.03059H19.9292C19.6531 7.44464 19.3771 7.92769 19.1701 8.41074H25.3118C25.5188 8.8938 25.7258 9.30784 25.8638 9.7909H18.618C18.48 10.274 18.342 10.688 18.204 11.171H26.2089C26.4159 12.0681 26.4849 12.9652 26.4849 13.9314C26.4849 15.3805 26.2779 16.7607 25.7948 18.0718H18.549C18.687 18.5549 18.894 19.0379 19.1011 19.452H25.2427C25.0357 19.935 24.7597 20.4181 24.4837 20.8321H19.8602C20.1362 21.3152 20.4812 21.7982 20.8263 22.2123H23.4486C23.0345 22.6953 22.6205 23.1784 22.1374 23.5924C24.4837 25.6627 27.52 26.9738 30.9014 26.9738C38.1472 26.9738 43.9438 21.1082 43.9438 13.8624C44.1508 6.75457 38.2852 0.888916 31.0394 0.888916Z" fill="#C9191B"/>
<path d="M11.8553 17.1748H10.1991L11.1652 12.0682L8.95696 17.1748H7.5078L7.23177 12.1372L6.26565 17.1748H4.81651L6.05863 10.55H8.61193L8.74993 14.6905L10.5441 10.55H13.1664L11.8553 17.1748Z" fill="white"/>
<path d="M30.0733 17.1749C29.6592 17.3129 29.2452 17.3819 28.9002 17.3819C28.0721 17.3819 27.589 16.9678 27.589 16.2088C27.589 16.0707 27.589 15.8637 27.658 15.7257L27.727 15.1736L27.796 14.7596L28.5551 10.6191H30.1423L29.9353 11.8613H30.7634L30.5563 13.1724H29.7282L29.3142 15.4497C29.3142 15.5187 29.3142 15.6567 29.3142 15.6567C29.3142 15.9327 29.5212 16.0708 29.8663 16.0708C30.0733 16.0708 30.2113 16.0707 30.2803 16.0017L30.0733 17.1749Z" fill="white"/>
<path d="M34.7658 11.8612C34.6278 11.7922 34.6278 11.7922 34.5588 11.7922C34.4898 11.7922 34.4208 11.7922 34.4208 11.7922C34.3518 11.7922 34.2827 11.7922 34.2137 11.7922C33.6617 11.7922 33.3167 11.9993 32.7646 12.6893L32.9026 11.8612H31.5915L30.6254 17.2438H32.2815C32.8336 13.9315 33.1096 13.3794 33.8687 13.3794C33.9377 13.3794 34.0067 13.3794 34.0757 13.3794L34.2827 13.4484L34.7658 11.8612Z" fill="white"/>
<path d="M23.5866 13.5173C23.5866 14.2074 24.0006 14.6905 24.8287 15.0355C25.5188 15.3115 25.5878 15.3805 25.5878 15.6566C25.5878 16.0016 25.3118 16.1396 24.6217 16.1396C24.1386 16.1396 23.6556 16.0706 23.1725 15.9326L22.9655 17.1747H23.0345L23.3105 17.2438C23.3795 17.2438 23.5866 17.3128 23.7246 17.3128C24.1386 17.3128 24.4147 17.3818 24.6217 17.3818C26.3469 17.3818 27.175 16.8297 27.175 15.5876C27.175 14.8285 26.8299 14.4144 26.0018 14.0694C25.3118 13.7934 25.2427 13.7244 25.2427 13.4483C25.2427 13.1723 25.5188 13.0343 26.0708 13.0343C26.4159 13.0343 26.8299 13.0343 27.244 13.1033L27.451 11.8612C27.037 11.7922 26.4159 11.7231 26.0018 11.7231C24.2076 11.7231 23.5866 12.5512 23.5866 13.5173Z" fill="white"/>
<path d="M15.9957 14.8285C15.7887 14.8285 15.7197 14.8285 15.6507 14.8285C14.7536 14.8285 14.2705 15.1045 14.2705 15.6566C14.2705 16.0016 14.4776 16.2086 14.8226 16.2086C15.4437 16.1396 15.9267 15.5876 15.9957 14.8285ZM17.1689 17.1747H15.7887L15.8577 16.6227C15.4437 17.0367 14.8916 17.2438 14.1325 17.2438C13.2354 17.2438 12.6834 16.6227 12.6834 15.7946C12.6834 14.4834 13.7185 13.7244 15.5127 13.7244C15.7197 13.7244 15.9267 13.7244 16.2028 13.7934C16.2718 13.5864 16.2717 13.5173 16.2717 13.4483C16.2717 13.1033 15.9957 12.9653 15.2366 12.9653C14.7536 12.9653 14.2705 13.0343 13.9255 13.1033L13.7185 13.1723L13.5805 13.2413L13.7875 11.9992C14.6156 11.7921 15.0986 11.7231 15.7197 11.7231C17.0998 11.7231 17.8589 12.2752 17.8589 13.3103C17.8589 13.5864 17.8589 13.7934 17.7209 14.3454L17.3759 16.2777L17.3069 16.6227L17.2379 16.8987V17.1057L17.1689 17.1747Z" fill="white"/>
<path d="M21.6544 13.8625C21.6544 13.7245 21.6544 13.6555 21.6544 13.5865C21.6544 13.1725 21.3783 12.8964 20.8953 12.8964C20.3432 12.8964 19.9982 13.2415 19.8602 13.8625H21.6544ZM22.4824 17.1059C21.9304 17.2439 21.3783 17.3129 20.8263 17.3129C19.0321 17.3129 18.066 16.4848 18.066 14.8977C18.066 13.0345 19.2391 11.6543 20.8953 11.6543C22.2064 11.6543 23.1035 12.4134 23.1035 13.5865C23.1035 14.0006 23.0345 14.3456 22.8965 14.8977H19.6531C19.6531 14.9667 19.6531 15.0357 19.6531 15.0357C19.6531 15.6567 20.1362 16.0018 21.1023 16.0018C21.6543 16.0018 22.2064 15.8638 22.8275 15.6567L22.4824 17.1059Z" fill="white"/>
<path d="M38.1472 14.0694C38.1472 13.5173 37.9402 12.9653 37.2501 12.9653C36.422 12.9653 35.9389 13.9314 35.9389 14.8285C35.9389 15.5876 36.284 16.0706 36.9051 16.0706C37.2501 16.0706 38.0092 15.5876 38.1472 14.7595C38.1472 14.5525 38.1472 14.2764 38.1472 14.0694ZM39.8724 14.7595C39.5963 16.5537 38.3542 17.3818 36.698 17.3818C34.8348 17.3818 34.1447 16.2777 34.1447 14.8975C34.1447 12.9653 35.3869 11.7231 37.3191 11.7231C39.0443 11.7231 39.8724 12.7583 39.8724 14.1384C39.9414 14.4144 39.9414 14.4144 39.8724 14.7595Z" fill="white"/>
</svg>
