<svg width="43" height="32" viewBox="0 0 43 32" fill="none" xmlns="http://www.w3.org/2000/svg">
<path d="M26.2996 8.13816H16.7045V23.8601H26.2996V8.13816Z" fill="#FF5F00"/>
<path d="M17.6928 16.0004C17.6916 14.4865 18.0337 12.9922 18.6931 11.6305C19.3526 10.2688 20.3122 9.07551 21.4993 8.14082C20.029 6.98166 18.2634 6.26085 16.4041 6.06077C14.5448 5.86068 12.6669 6.1894 10.9851 7.00935C9.30319 7.8293 7.8852 9.1074 6.89314 10.6976C5.90109 12.2877 5.375 14.1258 5.375 16.0018C5.375 17.8777 5.90109 19.7158 6.89314 21.306C7.8852 22.8961 9.30319 24.1742 10.9851 24.9942C12.6669 25.8141 14.5448 26.1428 16.4041 25.9428C18.2634 25.7427 20.029 25.0219 21.4993 23.8627C20.3118 22.9277 19.352 21.734 18.6925 20.3718C18.033 19.0096 17.6912 17.5147 17.6928 16.0004Z" fill="#EB001B"/>
<path d="M37.625 16.0006C37.625 17.8766 37.0988 19.7148 36.1065 21.3051C35.1143 22.8953 33.6961 24.1734 32.014 24.9932C30.3319 25.813 28.4539 26.1415 26.5945 25.9412C24.7351 25.7408 22.9694 25.0196 21.4993 23.8601C22.6859 22.9246 23.6452 21.7309 24.3048 20.3692C24.9645 19.0074 25.3072 17.5132 25.3072 15.9992C25.3072 14.4851 24.9645 12.9909 24.3048 11.6292C23.6452 10.2674 22.6859 9.07375 21.4993 8.13822C22.9694 6.9787 24.7351 6.25754 26.5945 6.05717C28.4539 5.8568 30.3319 6.18531 32.014 7.00514C33.6961 7.82497 35.1143 9.10305 36.1065 10.6933C37.0988 12.2835 37.625 14.1217 37.625 15.9978V16.0006Z" fill="#F79E1B"/>
</svg>
