<svg width="43" height="32" viewBox="0 0 43 32" fill="none" xmlns="http://www.w3.org/2000/svg">
<path d="M19.0331 13.8953C18.2048 13.8953 17.5321 13.2236 17.5321 12.3962C17.5321 11.5669 18.2048 10.8952 19.0331 10.8952C19.8614 10.8952 20.5322 11.5669 20.5322 12.3962C20.5322 13.2236 19.8614 13.8953 19.0331 13.8953ZM21.3337 4C14.7044 4 9.33331 9.372 9.33331 16.0004C9.33331 21.7522 13.3813 26.5591 18.782 27.7293V16.9603L18.7828 16.9595C18.7949 16.4397 19.209 16.0209 19.7241 16.0015V16.0007H20.2235H21.2399C21.3103 16.0007 21.3678 15.9451 21.3715 15.8757L21.3722 4.00215L21.3337 4ZM29.6033 22.5469C28.7759 22.5469 28.1033 21.8751 28.1033 21.0459C28.1033 20.2194 28.7759 19.5477 29.6033 19.5477C30.4307 19.5477 31.1033 20.2194 31.1033 21.0459C31.1033 21.8751 30.4307 22.5469 29.6033 22.5469ZM26.0871 22.5469C25.2597 22.5469 24.588 21.8751 24.588 21.0459C24.588 20.2194 25.2597 19.5477 26.0871 19.5477C26.9155 19.5477 27.5872 20.2194 27.5872 21.0459C27.5872 21.8751 26.9155 22.5469 26.0871 22.5469ZM22.5691 22.5469C21.7417 22.5469 21.0681 21.8751 21.0681 21.0459C21.0681 20.2194 21.7417 19.5477 22.5691 19.5477C23.3984 19.5477 24.0701 20.2194 24.0701 21.0459C24.0701 21.8751 23.3984 22.5469 22.5691 22.5469ZM22.8146 4.09044V16V16.4633V16.4717L22.8117 16.4746C22.8072 17.0102 22.3707 17.4428 21.8333 17.4428H21.3719H20.3564C20.2823 17.4428 20.223 17.5021 20.223 17.5753V27.9506C20.5889 27.9839 20.9577 28.0025 21.3329 28.0025C27.9613 28.0025 33.3333 22.6286 33.3333 16.0002C33.3333 9.87497 28.7433 4.82077 22.8145 4.09067" fill="#00985F"/>
</svg>
