<svg width="43" height="32" viewBox="0 0 43 32" fill="none" xmlns="http://www.w3.org/2000/svg">
<path fill-rule="evenodd" clip-rule="evenodd" d="M37.5003 10.6667H29.7703C30.1859 13.1973 32.6794 15.5646 35.4223 15.5646H41.5731C41.6562 15.3197 41.6562 14.9932 41.6562 14.7483C41.6562 12.4626 39.8276 10.6667 37.5003 10.6667Z" fill="url(#paint0_linear)"/>
<path fill-rule="evenodd" clip-rule="evenodd" d="M30.4352 15.9728V22.0952H34.1756V18.8299H37.5003C39.3289 18.8299 40.9082 17.6055 41.4069 15.9728H30.4352Z" fill="#4DB45F"/>
<path fill-rule="evenodd" clip-rule="evenodd" d="M17.1362 10.6667V22.0952H20.461C20.461 22.0952 21.2922 22.0952 21.7077 21.2789C23.9519 16.8707 24.6169 15.5646 24.6169 15.5646H25.0325V22.0952H28.7728V10.6667H25.4481C25.4481 10.6667 24.6169 10.7483 24.2013 11.483C22.2896 15.2381 21.2922 17.1973 21.2922 17.1973H20.8766V10.6667H17.1362Z" fill="#4DB45F"/>
<path fill-rule="evenodd" clip-rule="evenodd" d="M1.34375 22.0952V10.6667H5.08408C5.08408 10.6667 6.16463 10.6667 6.74646 12.2993C8.24259 16.6258 8.40883 17.1973 8.40883 17.1973C8.40883 17.1973 8.7413 16.136 10.0712 12.2993C10.653 10.6667 11.7336 10.6667 11.7336 10.6667H15.4739V22.0952H11.7336V15.9728H11.318L9.24001 22.0952H7.57764L5.49968 15.9728H5.08408V22.0952H1.34375Z" fill="#4DB45F"/>
<defs>
<linearGradient id="paint0_linear" x1="29.7488" y1="13.1156" x2="41.6562" y2="13.1156" gradientUnits="userSpaceOnUse">
<stop stop-color="#00B4E6"/>
<stop offset="1" stop-color="#088CCB"/>
</linearGradient>
</defs>
</svg>
