<svg width="55" height="16" viewBox="0 0 55 16" fill="none" xmlns="http://www.w3.org/2000/svg">
<path d="M48.5385 0.25H38.2386C38.8386 3.65 42.1386 6.85001 45.7386 6.85001H53.9386C54.0386 6.55001 54.0385 6.05 54.0385 5.75C54.0385 2.75 51.5385 0.25 48.5385 0.25Z" fill="url(#paint0_linear)"/>
<path d="M39.1385 7.44995V15.7499H44.1385V11.3499H48.5385C50.9385 11.3499 53.0386 9.64995 53.7386 7.44995H39.1385Z" fill="#4FAD50"/>
<path d="M21.5385 0.25V15.65H25.9386C25.9386 15.65 27.0385 15.65 27.6385 14.55C30.6385 8.65 31.5385 6.85001 31.5385 6.85001H32.1385V15.65H37.1385V0.25H32.7386C32.7386 0.25 31.6385 0.350006 31.0385 1.35001C28.5385 6.45001 27.1385 9.05 27.1385 9.05H26.5385V0.25H21.5385Z" fill="#4FAD50"/>
<path d="M0.538544 15.7501V0.350098H5.53854C5.53854 0.350098 6.93856 0.350095 7.73856 2.55009C9.73856 8.35009 9.93857 9.1501 9.93857 9.1501C9.93857 9.1501 10.3385 7.75009 12.1385 2.55009C12.9385 0.350095 14.3386 0.350098 14.3386 0.350098H19.3386V15.7501H14.3386V7.4501H13.7386L10.9386 15.7501H8.73856L5.93857 7.4501H5.33856V15.7501H0.538544Z" fill="#4FAD50"/>
<defs>
<linearGradient id="paint0_linear" x1="38.2208" y1="3.5973" x2="54.0031" y2="3.5973" gradientUnits="userSpaceOnUse">
<stop stop-color="#27B1E6"/>
<stop offset="1" stop-color="#148ACA"/>
</linearGradient>
</defs>
</svg>
