<svg width="43" height="32" viewBox="0 0 43 32" fill="none" xmlns="http://www.w3.org/2000/svg">
<path fill-rule="evenodd" clip-rule="evenodd" d="M4.92707 10.6667C4.17914 10.6667 3.29237 11.3774 2.56092 12.5723C1.79855 13.8098 1.34375 15.3418 1.34375 16.6722C1.34375 18.6199 2.44952 20.584 4.92727 20.584C7.40206 20.584 8.5108 18.6199 8.5108 16.6722C8.5108 15.3418 8.05621 13.8098 7.29752 12.5723C6.55921 11.3774 5.67254 10.6667 4.92707 10.6667ZM24.2772 13.5888H26.7856V20.0529H29.4733V13.5888H31.9807V11.1977H24.2772V13.5885V13.5888ZM37.7144 13.5888H41.6562V11.1977H37.7144C34.093 11.1977 32.1589 12.9774 32.1589 15.625C32.1589 18.2726 34.093 20.0529 37.7144 20.0529H41.6562V17.6619H37.7144C36.0383 17.6619 34.9366 17.0698 34.9366 15.6253C34.9366 14.1808 36.0383 13.5888 37.7144 13.5888ZM18.8108 11.1977L17.3784 16.483L15.946 11.1977H11.1983V20.0529H13.885V12.8503L15.8375 20.0529H18.9193L20.8728 12.846V20.0529H23.5605V11.1977H18.8108Z" fill="#E30613"/>
</svg>
