<svg width="79" height="20" viewBox="0 0 79 20" fill="none" xmlns="http://www.w3.org/2000/svg">
<path d="M30.3491 8.65015C30.1491 10.1501 28.9491 10.1501 27.8491 10.1501H27.2491L27.7491 7.25014C27.7491 7.05014 27.9491 6.95015 28.1491 6.95015H28.4491C29.2491 6.95015 29.9491 6.95015 30.3491 7.35015C30.3491 7.75015 30.3491 8.15015 30.3491 8.65015ZM29.8491 4.65015H25.5491C25.2491 4.65015 25.0491 4.85015 24.9491 5.15015L23.2491 16.1501C23.2491 16.3501 23.3491 16.5501 23.6491 16.5501H25.6491C25.9491 16.5501 26.1491 16.3501 26.2491 16.0501L26.7491 13.0501C26.7491 12.7501 27.0491 12.5501 27.3491 12.5501H28.7491C31.5491 12.5501 33.1491 11.1501 33.6491 8.45015C33.8491 7.25015 33.6491 6.35015 33.1491 5.65015C32.3491 5.05015 31.2491 4.65015 29.8491 4.65015Z" fill="#263577"/>
<path d="M39.7491 12.65C39.5491 13.85 38.6491 14.65 37.4491 14.65C36.8491 14.65 36.3491 14.45 36.0491 14.05C35.7491 13.65 35.6491 13.15 35.7491 12.65C35.9491 11.45 36.8491 10.65 38.0491 10.65C38.6491 10.65 39.1491 10.85 39.4491 11.25C39.6491 11.55 39.8491 12.05 39.7491 12.65ZM42.5491 8.64995H40.5491C40.3491 8.64995 40.2491 8.74995 40.1491 8.94995L40.0491 9.54995L39.9491 9.34995C39.5491 8.74995 38.5491 8.44995 37.5491 8.44995C35.2491 8.44995 33.3491 10.15 32.9491 12.55C32.7491 13.75 33.0491 14.85 33.7491 15.65C34.3491 16.35 35.2491 16.65 36.3491 16.65C38.1491 16.65 39.1491 15.45 39.1491 15.45L39.0491 16.05C39.0491 16.25 39.1491 16.45 39.4491 16.45H41.2491C41.5491 16.45 41.7491 16.25 41.8491 15.95L42.9491 8.94995C42.9491 8.84995 42.8491 8.64995 42.5491 8.64995Z" fill="#263577"/>
<path d="M53.4491 8.65015H51.3491C51.1491 8.65015 50.9491 8.75015 50.8491 8.95015L48.0491 13.1501L46.8491 9.15015C46.7491 8.85015 46.5491 8.75014 46.2491 8.75014H44.2491C44.0491 8.75014 43.8491 8.95014 43.9491 9.25014L46.2491 15.8501L44.1491 18.8501C43.9491 19.0501 44.1491 19.4501 44.4491 19.4501H46.5491C46.7491 19.4501 46.9491 19.3501 47.0491 19.1501L53.8491 9.25014C53.9491 8.95014 53.7491 8.65015 53.4491 8.65015Z" fill="#263577"/>
<path d="M60.7491 8.65015C60.5491 10.1501 59.3491 10.1501 58.2491 10.1501H57.6491L58.1491 7.25014C58.1491 7.05014 58.3491 6.95015 58.5491 6.95015H58.8491C59.6491 6.95015 60.3491 6.95015 60.7491 7.35015C60.8491 7.75015 60.8491 8.15015 60.7491 8.65015ZM60.2491 4.65015H55.9491C55.6491 4.65015 55.4491 4.85015 55.3491 5.15015L53.6491 16.1501C53.6491 16.3501 53.7491 16.5501 54.0491 16.5501H56.2491C56.4491 16.5501 56.6491 16.4501 56.6491 16.1501L57.1491 13.0501C57.1491 12.7501 57.4491 12.5501 57.7491 12.5501H59.1491C61.9491 12.5501 63.5491 11.1501 64.0491 8.45015C64.2491 7.25015 64.0491 6.35015 63.5491 5.65015C62.8491 5.05015 61.7491 4.65015 60.2491 4.65015Z" fill="#2199D6"/>
<path d="M70.2491 12.65C70.0491 13.85 69.1491 14.65 67.9491 14.65C67.3491 14.65 66.8491 14.45 66.5491 14.05C66.2491 13.65 66.1491 13.15 66.2491 12.65C66.4491 11.45 67.3491 10.65 68.5491 10.65C69.1491 10.65 69.6491 10.85 69.9491 11.25C70.1491 11.55 70.3491 12.05 70.2491 12.65ZM73.0491 8.64995H71.0491C70.8491 8.64995 70.7491 8.74995 70.6491 8.94995L70.5491 9.54995L70.4491 9.34995C70.0491 8.74995 69.0491 8.44995 68.0491 8.44995C65.7491 8.44995 63.8491 10.15 63.4491 12.55C63.2491 13.75 63.5491 14.85 64.2491 15.65C64.8491 16.35 65.7491 16.65 66.8491 16.65C68.6491 16.65 69.6491 15.45 69.6491 15.45L69.5491 16.05C69.5491 16.25 69.6491 16.45 69.9491 16.45H71.7491C72.0491 16.45 72.2491 16.25 72.3491 15.95L73.4491 8.94995C73.4491 8.84995 73.2491 8.64995 73.0491 8.64995Z" fill="#2199D6"/>
<path d="M75.4491 4.95015L73.6491 16.1501C73.6491 16.3501 73.7491 16.5501 74.0491 16.5501H75.8491C76.1491 16.5501 76.3491 16.3501 76.4491 16.0501L78.1491 5.05015C78.1491 4.85015 78.0491 4.65015 77.7491 4.65015H75.7491C75.6491 4.65015 75.5491 4.85015 75.4491 4.95015Z" fill="#2199D6"/>
<path d="M5.44913 18.6501L5.74911 16.5501H5.04912H1.54912L3.94913 1.25014C3.94913 1.25014 3.94912 1.15015 4.04912 1.15015H4.14912H10.0491C11.9491 1.15015 13.3491 1.55015 14.0491 2.35015C14.3491 2.75015 14.5491 3.15015 14.6491 3.55015C14.7491 4.05015 14.7491 4.55014 14.6491 5.25014V5.65015L14.9491 5.85015C15.2491 5.95015 15.4491 6.15015 15.6491 6.35015C15.9491 6.65015 16.1491 7.05015 16.1491 7.55015C16.2491 8.05015 16.2491 8.65015 16.0491 9.35015C15.8491 10.1501 15.6491 10.7501 15.3491 11.3501C15.0491 11.8501 14.6491 12.2501 14.2491 12.6501C13.8491 12.9501 13.2491 13.1501 12.7491 13.3501C12.1491 13.4501 11.5491 13.5501 10.8491 13.5501H10.3491C10.0491 13.5501 9.74913 13.6501 9.44913 13.8501C9.24913 14.0501 9.04913 14.3501 8.94913 14.6501V14.8501L8.34912 18.5501V18.6501V18.7501C8.34912 18.7501 8.34911 18.7501 8.24911 18.7501H5.44913V18.6501Z" fill="#263577"/>
<path d="M15.3491 5.25C15.3491 5.35 15.3491 5.45 15.2491 5.55C14.4491 9.55 11.8491 10.85 8.44913 10.85H6.74911C6.34912 10.85 5.94913 11.15 5.94913 11.55L5.04912 17.15L4.84912 18.75C4.84912 19.05 5.04911 19.25 5.24911 19.25H8.34912C8.74912 19.25 9.04912 18.95 9.04912 18.65V18.45L9.64912 14.85V14.65C9.74912 14.25 10.0491 14.05 10.3491 14.05H10.8491C13.8491 14.05 16.1491 12.85 16.7491 9.35C17.0491 7.85 16.8491 6.65 16.1491 5.85C15.9491 5.65 15.6491 5.45 15.3491 5.25Z" fill="#2199D6"/>
<path d="M14.5491 4.95015C14.4491 4.95015 14.3491 4.85015 14.1491 4.85015C14.0491 4.85015 13.8491 4.75014 13.7491 4.75014C13.2491 4.65014 12.7491 4.65015 12.2491 4.65015H7.64912C7.54912 4.65015 7.44912 4.65014 7.34912 4.75014C7.14912 4.85014 6.94913 5.05014 6.94913 5.25014L5.94913 11.4501V11.6501C6.04913 11.2501 6.34911 10.9501 6.74911 10.9501H8.44913C11.8491 10.9501 14.4491 9.55015 15.2491 5.65015C15.2491 5.55015 15.2491 5.45015 15.3491 5.35015C15.1491 5.25015 14.9491 5.15015 14.7491 5.05015C14.6491 4.95015 14.5491 4.95015 14.5491 4.95015Z" fill="#252C5E"/>
<path d="M6.94913 5.25005C6.94913 5.05005 7.14912 4.85005 7.34912 4.75005C7.44912 4.75005 7.54912 4.65005 7.64912 4.65005H12.2491C12.7491 4.65005 13.3491 4.65005 13.7491 4.75005C13.8491 4.75005 14.0491 4.75005 14.1491 4.85005C14.2491 4.85005 14.3491 4.95005 14.5491 4.95005C14.6491 4.95005 14.6491 4.95005 14.7491 5.05005C14.9491 5.15005 15.1491 5.25005 15.3491 5.35005C15.5491 3.85005 15.3491 2.85005 14.5491 1.95005C13.6491 0.950047 12.0491 0.550049 10.0491 0.550049H4.14912C3.74912 0.550049 3.34912 0.850046 3.34912 1.25005L0.949127 16.65C0.949127 16.95 1.14913 17.25 1.44913 17.25H5.04912L5.94913 11.4501L6.94913 5.25005Z" fill="#263577"/>
</svg>
