<svg width="29" height="30" viewBox="0 0 29 30" fill="none" xmlns="http://www.w3.org/2000/svg">
<path d="M22.397 18.7451C22.8801 18.9521 23.0871 19.6422 23.0871 19.9872C23.1561 20.5393 23.0181 20.8153 22.8111 20.8153C22.604 20.8153 22.328 20.6083 22.052 20.1252C21.7759 19.6422 21.6379 19.1591 21.7759 18.8831C21.983 18.7451 22.19 18.6761 22.397 18.7451Z" fill="#F28A1A"/>
<path d="M19.5677 20.8845C19.8437 20.8845 20.1888 21.0225 20.5338 21.2986C21.0859 21.7816 21.2929 22.3337 21.0168 22.7477C20.8788 22.9547 20.5338 23.0928 20.2578 23.0928C19.9127 23.0928 19.5677 22.9547 19.3607 22.7477C18.8086 22.2647 18.6706 21.5746 19.0156 21.1606C19.0846 21.0225 19.2917 20.8845 19.5677 20.8845Z" fill="#F28A1A"/>
<path d="M13.012 26.3361C5.83518 26.3361 0.0385437 20.5395 0.0385437 13.4317C0.0385437 6.3239 5.83518 0.458252 13.012 0.458252C20.1888 0.458252 25.9854 6.25489 25.9854 13.4317C25.9854 15.847 25.2953 18.1242 24.1912 20.0564C24.1222 20.1254 24.0532 20.1254 24.0532 19.9874C23.5701 16.8131 21.6379 15.0879 18.8776 14.5358C18.6016 14.4668 18.6016 14.3288 18.9466 14.3288C19.8437 14.2598 21.0169 14.2598 21.7069 14.3978C21.7759 14.0528 21.7759 13.7077 21.7759 13.4317C21.7759 8.73917 17.9115 4.87474 13.219 4.87474C8.52648 4.87474 4.66206 8.73917 4.66206 13.4317C4.66206 18.1242 8.52648 21.9886 13.219 21.9886H13.633C13.495 21.2296 13.426 20.4705 13.495 19.6424C13.495 19.0903 13.633 19.0213 13.8401 19.4354C15.0132 21.5056 16.7384 23.2998 20.0508 24.0589C22.7421 24.6799 25.4334 25.37 28.4007 29.0274C28.6767 29.3725 28.2627 29.7175 27.9866 29.4415C25.0193 26.8192 22.328 25.9221 19.8437 25.9221C16.7384 25.9911 14.8752 26.3361 13.012 26.3361Z" fill="#F28A1A"/>
</svg>
