<svg width="43" height="32" viewBox="0 0 43 32" fill="none" xmlns="http://www.w3.org/2000/svg">
<path d="M28.6385 19.6195C29.0589 19.78 29.2207 20.405 29.2528 20.6777C29.3176 21.1751 29.1724 21.3675 29.0107 21.3675C28.8489 21.3675 28.6224 21.1751 28.3803 20.7903C28.1376 20.405 28.0407 19.9724 28.1703 19.7476C28.2507 19.603 28.4285 19.5392 28.639 19.6195H28.6385ZM26.1821 21.4318C26.4408 21.4318 26.7316 21.544 26.9903 21.7682C27.4911 22.1854 27.6368 22.6664 27.3781 23.0193C27.2324 23.1958 26.9903 23.3079 26.7155 23.3079C26.4408 23.3079 26.1499 23.2117 25.956 23.0353C25.5034 22.6505 25.3743 22.0085 25.6647 21.6561C25.7782 21.5116 25.956 21.4318 26.1821 21.4318ZM20.5258 26.0663C14.3838 26.0663 9.40625 21.1268 9.40625 15.0329C9.40625 8.939 14.3843 4 20.5253 4C26.6668 4 31.6449 8.9395 31.6449 15.0329C31.6449 17.1014 31.0632 19.0423 30.0776 20.6941C30.045 20.742 29.9641 20.726 29.948 20.6617C29.5602 17.9517 27.8955 16.4599 25.4713 16.0113C25.2608 15.9789 25.2286 15.8508 25.5034 15.8189C26.2469 15.7546 27.2972 15.7706 27.8468 15.8668C27.8789 15.5941 27.8955 15.3055 27.8955 15.0169C27.8955 10.9916 24.5982 7.71983 20.5414 7.71983C16.4851 7.71983 13.1878 10.9916 13.1878 15.0169C13.1878 19.0423 16.4851 22.314 20.5419 22.314H20.881C20.7658 21.663 20.717 21.002 20.7353 20.3412C20.7519 19.8921 20.8488 19.8278 21.0427 20.1807C22.061 21.9287 23.5157 23.5003 26.3599 24.1259C28.6872 24.6392 31.0145 25.2324 33.5196 28.3915C33.7457 28.6641 33.4066 28.9527 33.1479 28.7284C30.5945 26.483 28.2672 25.7453 26.1499 25.7453C23.7739 25.7617 22.1579 26.0663 20.5253 26.0663H20.5258Z" fill="#FF8C00"/>
</svg>
