<svg width="24" height="24" viewBox="0 0 24 24" fill="none" xmlns="http://www.w3.org/2000/svg">
<path d="M8 11H13.66L12.41 9.68999C12.227 9.49771 12.1279 9.24061 12.1344 8.97524C12.141 8.70988 12.2527 8.45799 12.445 8.27499C12.6373 8.09199 12.8944 7.99287 13.1597 7.99944C13.4251 8.006 13.677 8.11771 13.86 8.30999L16.72 11.31C16.7534 11.3509 16.7835 11.3944 16.81 11.44C16.8562 11.4973 16.8933 11.5614 16.92 11.63C16.9552 11.7194 16.9754 11.814 16.98 11.91L17 12C16.9984 12.1307 16.9712 12.2598 16.92 12.38C16.8713 12.4992 16.8 12.6078 16.71 12.7L13.71 15.7C13.617 15.7937 13.5064 15.8681 13.3846 15.9189C13.2627 15.9697 13.132 15.9958 13 15.9958C12.868 15.9958 12.7373 15.9697 12.6154 15.9189C12.4936 15.8681 12.383 15.7937 12.29 15.7C12.1963 15.607 12.1219 15.4964 12.0711 15.3746C12.0203 15.2527 11.9942 15.122 11.9942 14.99C11.9942 14.858 12.0203 14.7273 12.0711 14.6054C12.1219 14.4836 12.1963 14.373 12.29 14.28L13.59 13H8C7.73478 13 7.48043 12.8946 7.29289 12.7071C7.10536 12.5196 7 12.2652 7 12C7 11.7348 7.10536 11.4804 7.29289 11.2929C7.48043 11.1053 7.73478 11 8 11Z" fill="#222C4F"/>
</svg>
