<svg width="24" height="24" viewBox="0 0 24 24" fill="none" xmlns="http://www.w3.org/2000/svg">
<g clip-path="url(#clip0)">
<path d="M9.24 14.456V15.824H14.52V17.504H9.24V20H6.12V17.504H3.72V15.824H6.12V3.2H13.032C15.272 3.2 17.016 3.68 18.264 4.64C19.528 5.6 20.16 7 20.16 8.84C20.16 10.664 19.528 12.056 18.264 13.016C17.016 13.976 15.272 14.456 13.032 14.456H9.24ZM17.016 8.864C17.016 7.888 16.672 7.144 15.984 6.632C15.296 6.104 14.304 5.84 13.008 5.84H9.24V11.936H13.008C14.288 11.936 15.272 11.672 15.96 11.144C16.664 10.6 17.016 9.84 17.016 8.864Z" fill="#222C4F"/>
</g>
<defs>
<clipPath id="clip0">
<rect width="24" height="24" fill="white"/>
</clipPath>
</defs>
</svg>
