<svg width="43" height="32" viewBox="0 0 43 32" fill="none" xmlns="http://www.w3.org/2000/svg">
<path d="M31.3812 8.48556C31.1197 8.12841 30.861 7.77125 30.6332 7.41128L16.6506 15.4431L9.90116 11.5734C9.74625 11.991 9.65156 12.4285 9.61993 12.8727L16.7153 16.9814L31.3812 8.48556Z" fill="#2F9A41"/>
<path d="M16.6507 18.4663L9.40064 14.3041C9.34699 14.5601 9.32527 14.8218 9.33596 15.0831C9.33596 18.2654 10.6001 21.3172 12.8502 23.5674C15.1004 25.8175 18.1523 27.0817 21.3345 27.0817C24.5167 27.0817 27.5686 25.8175 29.8187 23.5674C32.0689 21.3172 33.333 18.2654 33.333 15.0831C33.3465 13.1846 32.9007 11.3109 32.0338 9.62173L16.6507 18.4663Z" fill="#2F9A41"/>
<path d="M29.6574 6.40446C29.3157 6.08193 28.9571 5.77777 28.5831 5.49329L16.6507 12.4199L10.8968 9.13517C10.7027 9.49233 10.5059 9.88323 10.2781 10.3051L16.586 13.947L29.6574 6.40446Z" fill="#2F9A41"/>
<path d="M27.4132 4.71432C26.9616 4.44396 26.4917 4.20528 26.0071 4L16.6507 9.3883L12.4576 7.02319C12.1763 7.30441 11.8951 7.67282 11.6139 8.02998L16.6197 10.8929L27.4132 4.71432Z" fill="#2F9A41"/>
</svg>
