<svg width="24" height="24" viewBox="0 0 24 24" fill="none" xmlns="http://www.w3.org/2000/svg">
<path d="M12 21.85C11.6505 21.8555 11.3058 21.7693 11 21.6L10.7 21.43C8.36326 20.108 6.41925 18.1895 5.06646 15.8704C3.71368 13.5513 3.00058 10.9148 2.99999 8.23V8.09C2.99682 7.73589 3.08773 7.38728 3.26342 7.07982C3.43912 6.77235 3.6933 6.51705 3.99999 6.34L11 2.4C11.304 2.22446 11.6489 2.13205 12 2.13205C12.3511 2.13205 12.696 2.22446 13 2.4L20 6.34C20.3067 6.51705 20.5609 6.77235 20.7366 7.07982C20.9123 7.38728 21.0032 7.73589 21 8.09V8.23C20.9974 10.9168 20.2813 13.5546 18.9249 15.8739C17.5685 18.1931 15.6204 20.1105 13.28 21.43L12.98 21.6C12.6801 21.7659 12.3427 21.852 12 21.85Z" fill="#222C4F"/>
</svg>
