<svg width="24" height="24" viewBox="0 0 24 24" fill="none" xmlns="http://www.w3.org/2000/svg">
<path d="M12 13C12.5523 13 13 12.5523 13 12C13 11.4477 12.5523 11 12 11C11.4477 11 11 11.4477 11 12C11 12.5523 11.4477 13 12 13Z" fill="#222C4F"/>
<path d="M16 13C16.5523 13 17 12.5523 17 12C17 11.4477 16.5523 11 16 11C15.4477 11 15 11.4477 15 12C15 12.5523 15.4477 13 16 13Z" fill="#222C4F"/>
<path d="M8 13C8.55228 13 9 12.5523 9 12C9 11.4477 8.55228 11 8 11C7.44772 11 7 11.4477 7 12C7 12.5523 7.44772 13 8 13Z" fill="#222C4F"/>
<path d="M19.07 4.93001C17.4292 3.27851 15.2636 2.25122 12.9466 2.02525C10.6296 1.79928 8.30635 2.38878 6.37739 3.69214C4.44843 4.99549 3.03464 6.93101 2.37977 9.16502C1.7249 11.399 1.86998 13.7915 2.79 15.93C2.88589 16.1288 2.91736 16.3525 2.88 16.57L2 20.8C1.9661 20.9622 1.97302 21.1302 2.02015 21.2891C2.06728 21.4479 2.15314 21.5926 2.27 21.71C2.36581 21.8051 2.47988 21.8798 2.60534 21.9297C2.7308 21.9795 2.86505 22.0034 3 22H3.2L7.48 21.14C7.69753 21.1139 7.91812 21.1449 8.12 21.23C10.2585 22.15 12.651 22.2951 14.885 21.6402C17.119 20.9854 19.0545 19.5716 20.3579 17.6426C21.6612 15.7137 22.2507 13.3904 22.0248 11.0734C21.7988 8.75637 20.7715 6.59079 19.12 4.95001L19.07 4.93001ZM19.9 13.29C19.7045 14.484 19.2407 15.6181 18.5436 16.6069C17.8464 17.5957 16.9341 18.4136 15.8752 18.9989C14.8163 19.5841 13.6384 19.9216 12.4302 19.9859C11.2221 20.0502 10.015 19.8396 8.9 19.37C8.50455 19.2018 8.07973 19.1134 7.65 19.11C7.46228 19.1113 7.27499 19.128 7.09 19.16L4.27 19.73L4.84 16.91C4.95353 16.2993 4.88035 15.6685 4.63 15.1C4.1604 13.985 3.94981 12.778 4.0141 11.5698C4.07838 10.3616 4.41587 9.18376 5.00115 8.12486C5.58643 7.06596 6.40426 6.15361 7.3931 5.45646C8.38194 4.75931 9.51602 4.29552 10.71 4.10001C11.9633 3.89432 13.2475 3.98998 14.4565 4.37907C15.6655 4.76815 16.7644 5.43949 17.6625 6.33754C18.5605 7.2356 19.2319 8.33456 19.6209 9.54353C20.01 10.7525 20.1057 12.0367 19.9 13.29Z" fill="#222C4F"/>
</svg>
