<svg width="16" height="16" viewBox="0 0 16 16" fill="none" xmlns="http://www.w3.org/2000/svg">
<path d="M11.7067 14C11.6 14.0004 11.4949 13.9753 11.4 13.9267L7.99999 12.1467L4.59999 13.9267C4.48959 13.9847 4.36511 14.0106 4.24071 14.0015C4.11631 13.9923 3.99698 13.9484 3.89628 13.8748C3.79558 13.8012 3.71755 13.7008 3.67107 13.585C3.62459 13.4693 3.61151 13.3428 3.63333 13.22L4.29999 9.46667L1.55333 6.8C1.46763 6.71448 1.40684 6.60725 1.37748 6.4898C1.34812 6.37235 1.35129 6.24912 1.38666 6.13333C1.4253 6.01485 1.49638 5.90957 1.59183 5.82944C1.68728 5.74931 1.80328 5.69754 1.92666 5.68L5.72666 5.12667L7.39999 1.70667C7.45458 1.59395 7.53982 1.49889 7.64594 1.43238C7.75205 1.36587 7.87476 1.33059 7.99999 1.33059C8.12523 1.33059 8.24794 1.36587 8.35405 1.43238C8.46017 1.49889 8.5454 1.59395 8.59999 1.70667L10.2933 5.12L14.0933 5.67333C14.2167 5.69087 14.3327 5.74264 14.4282 5.82277C14.5236 5.9029 14.5947 6.00818 14.6333 6.12667C14.6687 6.24245 14.6719 6.36568 14.6425 6.48313C14.6131 6.60058 14.5524 6.70782 14.4667 6.79333L11.72 9.46L12.3867 13.2133C12.4105 13.3383 12.398 13.4675 12.3507 13.5856C12.3035 13.7038 12.2234 13.8059 12.12 13.88C11.9993 13.9646 11.8539 14.0068 11.7067 14ZM7.99999 10.7333C8.10686 10.7306 8.21258 10.7559 8.30666 10.8067L10.82 12.14L10.34 9.33333C10.3214 9.22617 10.3293 9.11607 10.363 9.01265C10.3967 8.90923 10.4551 8.81562 10.5333 8.74L12.5333 6.78667L9.73333 6.37333C9.63065 6.35266 9.53429 6.30809 9.45205 6.24322C9.36982 6.17836 9.30402 6.09504 9.25999 6L7.99999 3.5L6.73999 6C6.69176 6.0958 6.62112 6.17855 6.53408 6.24123C6.44703 6.3039 6.34615 6.34464 6.23999 6.36L3.43999 6.77333L5.43999 8.72667C5.51818 8.80229 5.57667 8.89589 5.61037 8.99932C5.64407 9.10274 5.65195 9.21283 5.63333 9.32L5.15333 12.0933L7.66666 10.76C7.77316 10.7204 7.88856 10.7112 7.99999 10.7333Z" fill="#F5A623"/>
<path d="M7.99999 3.5L6.73999 6C6.69176 6.0958 6.62112 6.17855 6.53408 6.24123C6.44703 6.3039 6.34615 6.34464 6.23999 6.36L3.43999 6.77333L5.43999 8.72667C5.51818 8.80229 5.57667 8.89589 5.61037 8.99932C5.64407 9.10274 5.65195 9.21283 5.63333 9.32L5.15333 12.0933L7.66666 10.76C7.77316 10.7204 7.88856 10.7112 7.99999 10.7333V3.5Z" fill="#F5A623"/>
</svg>
