<svg width="43" height="32" viewBox="0 0 43 32" fill="none" xmlns="http://www.w3.org/2000/svg">
<path d="M9.81177 19.4517C11.2959 24.3969 15.8869 28 21.3204 28C27.9548 28 33.3333 22.6273 33.3333 16C33.3333 9.3726 27.9548 4 21.3204 4C14.954 4 9.74474 8.94719 9.33331 15.2027C10.1107 16.5068 10.4141 17.3133 9.81188 19.4517H9.81177Z" fill="url(#paint0_linear)"/>
<path d="M20.8021 12.6963C20.8021 12.7171 20.8021 12.7378 20.8031 12.7573L17.8403 17.1453C17.3603 17.1231 16.8787 17.2089 16.422 17.4007C16.2207 17.4844 16.0321 17.5872 15.8551 17.7058L9.34912 14.9753C9.34917 14.9753 9.19858 17.5003 9.82596 19.3821L14.4253 21.3169C14.6562 22.3691 15.3642 23.292 16.4087 23.736C18.1177 24.4639 20.0881 23.6342 20.799 21.8912C20.984 21.4356 21.0702 20.9577 21.0578 20.4809L25.2971 17.3922C25.3314 17.3933 25.3667 17.3943 25.401 17.3943C27.938 17.3943 30 15.2857 30 12.6963C30 10.1067 27.938 8 25.401 8C22.8651 8 20.8021 10.1067 20.8021 12.6963ZM20.0912 21.5882C19.541 22.9349 18.023 23.5739 16.7035 23.0133C16.0948 22.7548 15.6352 22.2812 15.37 21.7164L16.8672 22.349C17.8403 22.7622 18.9567 22.2917 19.3612 21.3C19.7669 20.3071 19.3066 19.167 18.334 18.7538L16.7864 18.1C17.3836 17.869 18.0625 17.8605 18.6968 18.1297C19.3363 18.4009 19.8324 18.9117 20.0954 19.5644C20.3583 20.2171 20.3573 20.9376 20.0912 21.5882ZM25.401 15.8261C23.7122 15.8261 22.3372 14.4222 22.3372 12.6963C22.3372 10.9718 23.7122 9.56745 25.401 9.56745C27.091 9.56745 28.466 10.9718 28.466 12.6963C28.466 14.4222 27.091 15.8261 25.401 15.8261ZM23.1052 12.6915C23.1052 11.3932 24.1362 10.3402 25.4062 10.3402C26.6773 10.3402 27.7083 11.3932 27.7083 12.6915C27.7083 13.99 26.6773 15.042 25.4062 15.042C24.1362 15.042 23.1052 13.99 23.1052 12.6915Z" fill="white"/>
<defs>
<linearGradient id="paint0_linear" x1="21.3333" y1="4" x2="21.3333" y2="28" gradientUnits="userSpaceOnUse">
<stop stop-color="#111D2E"/>
<stop offset="0.21248" stop-color="#051839"/>
<stop offset="0.40695" stop-color="#0A1B48"/>
<stop offset="0.5811" stop-color="#132E62"/>
<stop offset="0.7376" stop-color="#144B7E"/>
<stop offset="0.87279" stop-color="#136497"/>
<stop offset="1" stop-color="#1387B8"/>
</linearGradient>
</defs>
</svg>
