<svg width="24" height="24" viewBox="0 0 24 24" fill="none" xmlns="http://www.w3.org/2000/svg">
<path d="M2.31563 11.6799L6.45392 13.2523L8.06714 18.5413C8.13728 18.8986 8.55812 18.9701 8.83868 18.7557L11.1533 16.8259C11.3637 16.6115 11.7144 16.6115 11.995 16.8259L16.1333 19.8993C16.4138 20.1137 16.8347 19.9707 16.9048 19.6134L19.991 4.60405C20.0611 4.24669 19.7104 3.88933 19.3597 4.03227L2.31563 10.7507C1.89479 10.8937 1.89479 11.5369 2.31563 11.6799ZM7.85672 12.4661L15.993 7.3915C16.1333 7.32002 16.2735 7.53445 16.1333 7.60592L9.46994 13.967C9.25952 14.1814 9.0491 14.4673 9.0491 14.8247L8.83868 16.54C8.83868 16.7545 8.48798 16.8259 8.41784 16.54L7.57615 13.3952C7.36573 13.0379 7.50602 12.609 7.85672 12.4661Z" fill="#ADB9CA"/>
</svg>
