<svg width="43" height="32" viewBox="0 0 43 32" fill="none" xmlns="http://www.w3.org/2000/svg">
<path d="M2.6875 12.9556V14.9872L8.21085 14.3843V12.1854L2.6875 12.9556ZM4.45009 15.1107V22.0724H6.47225V14.9057L4.45009 15.1107ZM8.95681 12.0814V22.0724H11.0876V11.7842L8.95681 12.0814ZM11.4846 11.7288V14.0271L14.5614 13.6912V11.2998L11.4846 11.7288ZM11.4846 15.7377V18.0779L13.5043 17.9686V15.5652L11.4846 15.7377ZM11.4846 19.7647V22.0724H14.5614V19.6726L11.4846 19.7647ZM22.5185 10.1866V22.0724H25.3118V9.79706L22.5185 10.1866ZM25.8334 9.72423V12.4582L29.9041 12.0141V9.15644L25.8334 9.72423ZM25.8334 14.5144V17.299L28.5015 17.1544V14.2877L25.8334 14.5144ZM25.8334 19.3344V22.0724H29.9041V19.2124L25.8334 19.3344ZM15.3755 11.1861V22.0724H17.8027V10.8475L15.3755 11.1861ZM18.2557 19.5621V22.0723H21.779V19.4565L18.2557 19.5621ZM39.0304 9.02204C38.1476 8.19443 36.8532 7.85497 35.4374 8.05678V11.0891C36.0107 11.0575 36.4753 11.2686 36.6823 11.6937C37.0091 12.3639 36.6719 13.3694 35.8765 14.301C34.6487 15.7386 31.3838 18.6811 31.3838 18.6811L36.0707 18.5282C38.9344 15.7521 39.9629 14.067 40.1474 11.9639C40.2443 10.8513 39.8373 9.7792 39.0304 9.02204ZM40.3125 22.0724V18.8995L30.8061 19.1836L40.3125 22.0724ZM30.8061 19.1835L30.8071 22.0723H40.3125L30.8061 19.1835ZM34.8909 8.12485C32.1292 8.70844 30.7731 10.7244 30.9296 14.014L33.8742 13.7547C33.74 11.8963 34.3129 11.4554 34.8923 11.213L34.8909 8.12485Z" fill="#141414"/>
</svg>
