<svg width="24" height="24" viewBox="0 0 24 24" fill="none" xmlns="http://www.w3.org/2000/svg">
<path d="M6.99591 13.8659C6.99642 13.7312 7.02415 13.598 7.07742 13.4743C7.13069 13.3505 7.20841 13.2388 7.30591 13.1459L11.3059 9.2859C11.4928 9.10268 11.7442 9.00005 12.0059 9.00005C12.2677 9.00005 12.519 9.10268 12.7059 9.2859L16.7059 13.2859C16.7991 13.3791 16.8731 13.4898 16.9236 13.6117C16.974 13.7335 17 13.864 17 13.9959C17 14.1278 16.974 14.2583 16.9236 14.3802C16.8731 14.502 16.7991 14.6127 16.7059 14.7059C16.6127 14.7991 16.502 14.8731 16.3802 14.9236C16.2583 14.974 16.1278 15 15.9959 15C15.864 15 15.7335 14.974 15.6117 14.9236C15.4898 14.8731 15.3791 14.7991 15.2859 14.7059L11.9959 11.4059L8.69591 14.5859C8.50854 14.7722 8.2551 14.8767 7.99091 14.8767C7.72672 14.8767 7.47327 14.7722 7.28591 14.5859C7.19202 14.4913 7.118 14.3788 7.0682 14.2552C7.0184 14.1315 6.99382 13.9992 6.99591 13.8659Z" fill="#222C4F"/>
</svg>
