<svg width="24" height="24" viewBox="0 0 24 24" fill="none" xmlns="http://www.w3.org/2000/svg">
<path d="M12.71 11.29C12.5231 11.1068 12.2717 11.0041 12.01 11.0041C11.7482 11.0041 11.4969 11.1068 11.31 11.29L8.30999 14.19C8.20388 14.2776 8.11697 14.3861 8.05471 14.5087C7.99245 14.6314 7.95617 14.7656 7.94815 14.903C7.94012 15.0403 7.96051 15.1778 8.00806 15.3069C8.0556 15.436 8.12927 15.5539 8.22445 15.6532C8.31964 15.7525 8.4343 15.8312 8.56125 15.8841C8.68821 15.9371 8.82473 15.9634 8.96228 15.9612C9.09984 15.959 9.23546 15.9285 9.36067 15.8715C9.48589 15.8145 9.59799 15.7323 9.68999 15.63L11 14.36V20C11 20.2652 11.1053 20.5196 11.2929 20.7071C11.4804 20.8946 11.7348 21 12 21C12.2652 21 12.5196 20.8946 12.7071 20.7071C12.8946 20.5196 13 20.2652 13 20V14.41L14.29 15.71C14.3829 15.8037 14.4935 15.8781 14.6154 15.9289C14.7373 15.9797 14.868 16.0058 15 16.0058C15.132 16.0058 15.2627 15.9797 15.3846 15.9289C15.5064 15.8781 15.617 15.8037 15.71 15.71C15.8037 15.617 15.8781 15.5064 15.9289 15.3846C15.9796 15.2627 16.0058 15.132 16.0058 15C16.0058 14.868 15.9796 14.7373 15.9289 14.6154C15.8781 14.4936 15.8037 14.383 15.71 14.29L12.71 11.29Z" fill="#222C4F"/>
<path d="M17.67 7C17.2619 5.82105 16.4966 4.79861 15.4803 4.07496C14.4641 3.3513 13.2475 2.96242 12 2.96242C10.7524 2.96242 9.53589 3.3513 8.51965 4.07496C7.50342 4.79861 6.73803 5.82105 6.32999 7C5.43154 7.12033 4.5827 7.48265 3.87429 8.04819C3.16587 8.61373 2.62452 9.36121 2.30815 10.2107C1.99178 11.0602 1.9123 11.9797 2.07819 12.8708C2.24409 13.762 2.64913 14.5913 3.24999 15.27C3.32257 15.3978 3.42244 15.5081 3.5425 15.5929C3.66255 15.6778 3.79984 15.7351 3.94458 15.7609C4.08931 15.7866 4.23795 15.7801 4.37989 15.7418C4.52183 15.7036 4.65359 15.6345 4.76579 15.5395C4.87798 15.4445 4.96785 15.3259 5.029 15.1922C5.09015 15.0586 5.12107 14.913 5.11956 14.766C5.11805 14.619 5.08415 14.4742 5.02027 14.3418C4.9564 14.2094 4.86411 14.0927 4.74999 14C4.3631 13.5675 4.10997 13.032 4.02127 12.4585C3.93258 11.885 4.01212 11.2981 4.25026 10.7689C4.4884 10.2397 4.87492 9.79089 5.36298 9.47693C5.85103 9.16296 6.41967 8.99729 6.99999 9H7.09999C7.33393 9.00471 7.56213 8.92724 7.74484 8.78107C7.92756 8.63489 8.05324 8.42927 8.09999 8.2C8.2836 7.29576 8.77417 6.48282 9.48858 5.89889C10.203 5.31497 11.0973 4.99599 12.02 4.99599C12.9427 4.99599 13.837 5.31497 14.5514 5.89889C15.2658 6.48282 15.7564 7.29576 15.94 8.2C15.9867 8.42927 16.1124 8.63489 16.2951 8.78107C16.4778 8.92724 16.706 9.00471 16.94 9H17C17.5803 8.99729 18.1489 9.16296 18.637 9.47693C19.1251 9.79089 19.5116 10.2397 19.7497 10.7689C19.9879 11.2981 20.0674 11.885 19.9787 12.4585C19.89 13.032 19.6369 13.5675 19.25 14C19.1619 14.0988 19.0943 14.2141 19.0511 14.3392C19.0079 14.4643 18.99 14.5967 18.9983 14.7288C19.0067 14.8609 19.0412 14.99 19.0999 15.1086C19.1585 15.2273 19.2401 15.3331 19.34 15.42C19.5223 15.5808 19.7569 15.6696 20 15.67C20.142 15.6698 20.2823 15.6394 20.4116 15.5808C20.5409 15.5222 20.6563 15.4367 20.75 15.33C21.3675 14.6524 21.7869 13.8182 21.9622 12.9183C22.1376 12.0185 22.0621 11.0878 21.7442 10.228C21.4263 9.36812 20.8781 8.61223 20.1595 8.04293C19.441 7.47363 18.5798 7.11284 17.67 7Z" fill="#222C4F"/>
</svg>
