<svg width="24" height="24" viewBox="0 0 24 24" fill="none" xmlns="http://www.w3.org/2000/svg">
<path d="M17.56 21C17.4001 21.0006 17.2423 20.9629 17.1 20.89L12 18.22L6.90001 20.89C6.7344 20.9771 6.54768 21.016 6.36108 21.0022C6.17448 20.9884 5.99548 20.9226 5.84444 20.8122C5.69339 20.7018 5.57635 20.5512 5.50662 20.3776C5.4369 20.2039 5.41728 20.0142 5.45001 19.83L6.45001 14.2L2.33001 10.2C2.20146 10.0717 2.11028 9.91087 2.06623 9.73469C2.02219 9.55852 2.02695 9.37367 2.08001 9.2C2.13797 9.02227 2.24458 8.86435 2.38776 8.74416C2.53093 8.62396 2.70493 8.5463 2.89001 8.52L8.59001 7.69L11.1 2.56C11.1819 2.39093 11.3097 2.24834 11.4689 2.14857C11.6281 2.0488 11.8122 1.99589 12 1.99589C12.1879 1.99589 12.3719 2.0488 12.5311 2.14857C12.6903 2.24834 12.8181 2.39093 12.9 2.56L15.44 7.68L21.14 8.51C21.3251 8.5363 21.4991 8.61396 21.6423 8.73416C21.7854 8.85435 21.892 9.01227 21.95 9.19C22.0031 9.36367 22.0078 9.54852 21.9638 9.72469C21.9197 9.90087 21.8286 10.0617 21.7 10.19L17.58 14.19L18.58 19.82C18.6157 20.0075 18.597 20.2013 18.5261 20.3784C18.4553 20.5556 18.3352 20.7089 18.18 20.82C17.9989 20.9469 17.7809 21.0102 17.56 21Z" fill="#222C4F"/>
</svg>
