<svg width="69" height="22" viewBox="0 0 69 22" fill="none" xmlns="http://www.w3.org/2000/svg">
<path d="M63.8 0.800049H59.5C58.2 0.800049 57.2 1.20005 56.6 2.50005L48.4 21.2H54.2C54.2 21.2 55.2 18.7001 55.4 18.1C56 18.1 61.7 18.1 62.5 18.1C62.7 18.8001 63.2 21.1 63.2 21.1H68.4L63.8 0.800049ZM57 13.9C57.5 12.7 59.2 8.20005 59.2 8.20005C59.2 8.30005 59.7 7.00005 59.9 6.30005L60.3 8.10005C60.3 8.10005 61.4 13 61.6 14H57V13.9Z" fill="#3362AB"/>
<path d="M48.8 14.5C48.8 18.7 45 21.5 39.1 21.5C36.6 21.5 34.2 21 32.9 20.4L33.7 15.8L34.4 16.1C36.2 16.9 37.4 17.2 39.6 17.2C41.2 17.2 42.9 16.6 42.9 15.2C42.9 14.3 42.2 13.7 40 12.7C37.9 11.7 35.1 10.1 35.1 7.2C35.1 3.2 39 0.5 44.5 0.5C46.6 0.5 48.4 0.9 49.5 1.4L48.7 5.8L48.3 5.4C47.3 5 46 4.6 44.1 4.6C42 4.7 41 5.6 41 6.4C41 7.3 42.2 8 44.1 8.9C47.3 10.4 48.8 12.1 48.8 14.5Z" fill="#3362AB"/>
<path d="M0 1.0001L0.1 0.600098H8.7C9.9 0.600098 10.8 1.0001 11.1 2.3001L13 11.3001C11.1 6.5001 6.7 2.6001 0 1.0001Z" fill="#F9B50B"/>
<path d="M25.1 0.799951L16.4 21.1H10.5L5.5 4.09995C9.1 6.39995 12.1 9.99995 13.2 12.5L13.8 14.6L19.2 0.699951H25.1V0.799951Z" fill="#3362AB"/>
<path d="M27.4 0.699951H32.9L29.4 21.1H23.9L27.4 0.699951Z" fill="#3362AB"/>
</svg>
