<svg width="43" height="32" viewBox="0 0 43 32" fill="none" xmlns="http://www.w3.org/2000/svg">
<rect x="3" y="4" width="39" height="24" rx="6" fill="#1A216C"/>
<path d="M19.6749 20.3701H17.3055L18.7875 11.6579H21.1568L19.6749 20.3701Z" fill="white"/>
<path d="M28.2646 11.8708C27.7972 11.6945 27.0559 11.4999 26.1394 11.4999C23.7995 11.4999 22.1517 12.6862 22.1416 14.3822C22.1222 15.6335 23.3213 16.3286 24.2182 16.7458C25.1349 17.1721 25.4466 17.4504 25.4466 17.8304C25.4372 18.4141 24.7058 18.6831 24.0236 18.6831C23.0776 18.6831 22.5707 18.5444 21.8004 18.2197L21.4884 18.0805L21.1569 20.0362C21.7126 20.2769 22.7365 20.4905 23.7995 20.4999C26.2857 20.4999 27.9042 19.332 27.9234 17.5246C27.9329 16.5328 27.2997 15.7729 25.9345 15.1519C25.1058 14.7532 24.5983 14.4845 24.5983 14.0766C24.608 13.7058 25.0275 13.326 25.963 13.326C26.7333 13.3074 27.2993 13.4834 27.728 13.6596L27.9423 13.7521L28.2646 11.8708Z" fill="white"/>
<path d="M31.4136 17.2837C31.6087 16.7831 32.3596 14.846 32.3596 14.846C32.3498 14.8646 32.5544 14.3363 32.6714 14.0119L32.8369 14.7626C32.8369 14.7626 33.2856 16.8481 33.3831 17.2837C33.0128 17.2837 31.8816 17.2837 31.4136 17.2837ZM34.3384 11.6579H32.5056C31.9404 11.6579 31.5111 11.8153 31.2672 12.3807L27.7477 20.37H30.2339C30.2339 20.37 30.6432 19.2947 30.7312 19.0631C31.0039 19.0631 33.4225 19.0631 33.7734 19.0631C33.8414 19.369 34.0561 20.37 34.0561 20.37H36.25L34.3384 11.6579Z" fill="white"/>
<path d="M15.3264 11.6579L13.0059 17.5988L12.7524 16.3939C12.3234 15.0036 10.9779 13.4931 9.47644 12.742L11.6019 20.3608H14.1075L17.8319 11.6579H15.3264Z" fill="white"/>
<path d="M10.8512 11.6535H7.039L7 11.8295C9.97377 12.5525 11.9432 14.2952 12.7524 16.3899L11.9237 12.3858C11.7872 11.8294 11.3679 11.6718 10.8512 11.6535Z" fill="white"/>
</svg>
