<svg width="24" height="24" viewBox="0 0 24 24" fill="none" xmlns="http://www.w3.org/2000/svg">
<path d="M21.8142 16.7671C21.8142 16.6849 21.7346 16.6849 21.7346 16.6027C21.4163 15.9452 20.7002 15.1233 19.7453 14.2192C19.2678 13.8082 19.0291 13.4795 18.8699 13.3151C18.6312 12.9863 18.6312 12.7397 18.7108 12.411C18.7904 12.1644 19.1087 11.7534 19.6657 11.0137C19.984 10.6027 20.1431 10.3562 20.3819 10.1096C21.5755 8.46575 22.1325 7.39725 21.9734 6.9041L21.8938 6.82192C21.8142 6.73973 21.7346 6.65754 21.5755 6.65754C21.3748 6.65754 21.2138 6.65754 20.9389 6.65754H17.9151C17.8355 6.65754 17.8355 6.65754 17.6763 6.65754C17.5967 6.65754 17.5172 6.65754 17.5172 6.65754H17.4376H17.358L17.2784 6.73972C17.1989 6.82191 17.1989 6.82191 17.1989 6.9041C16.8806 7.80821 16.4827 8.54794 16.0848 9.36986C15.8461 9.78082 15.6074 10.1918 15.3686 10.5206C15.1299 10.8493 14.9707 11.0959 14.8116 11.2603C14.6524 11.4247 14.4933 11.5068 14.4137 11.6712C14.3341 11.7534 14.175 11.8356 14.175 11.7534C14.0954 11.7534 14.0158 11.7534 14.0158 11.6712C13.9363 11.589 13.8567 11.5068 13.7771 11.4247C13.6976 11.3425 13.6975 11.1781 13.618 11.0137C13.618 10.8493 13.618 10.6849 13.618 10.6027C13.618 10.5205 13.618 10.274 13.618 10.1096C13.618 9.86302 13.618 9.69863 13.618 9.61644C13.618 9.36986 13.618 9.0411 13.618 8.71233C13.618 8.38357 13.618 8.13698 13.618 7.9726C13.618 7.80822 13.618 7.56164 13.618 7.39726C13.618 7.15068 13.618 6.98629 13.618 6.9041C13.618 6.82191 13.5384 6.65753 13.5384 6.57534C13.4588 6.49315 13.3792 6.41095 13.2997 6.32876C13.2201 6.24657 13.061 6.24657 12.9814 6.16438C12.5835 6.08219 12.1061 6 11.549 6C10.2758 6 9.4005 6.08219 9.0822 6.24658C8.92305 6.32877 8.7639 6.41096 8.68432 6.57534C8.52517 6.73972 8.52517 6.82192 8.60474 6.82192C9.00262 6.90411 9.32092 7.06849 9.48007 7.31506L9.55966 7.47946C9.63923 7.56165 9.63922 7.72602 9.71879 7.9726C9.79837 8.21917 9.79837 8.46575 9.79837 8.79452C9.79837 9.28767 9.79837 9.78082 9.79837 10.1096C9.79837 10.5206 9.71879 10.7671 9.71879 11.0137C9.71879 11.2603 9.63923 11.4247 9.55966 11.5069C9.48008 11.6712 9.48007 11.7534 9.40049 11.7534C9.40049 11.7534 9.40049 11.8356 9.32091 11.8356C9.24134 11.8356 9.16177 11.9178 9.00262 11.9178C8.92304 11.9178 8.7639 11.8356 8.68432 11.7534C8.52517 11.6712 8.36602 11.5069 8.28645 11.3425C8.1273 11.1781 7.96814 10.9315 7.80899 10.6027C7.64984 10.274 7.41111 9.94521 7.25196 9.45205L7.09282 9.12329C7.01324 8.95891 6.85409 8.63014 6.69494 8.21918C6.53579 7.80822 6.37664 7.47946 6.21749 7.0685C6.13791 6.90411 6.05835 6.82191 5.97877 6.73972H5.89919C5.89919 6.73972 5.81961 6.65754 5.74003 6.65754C5.66046 6.65754 5.58089 6.57534 5.50132 6.57534H2.6366C2.3183 6.57534 2.15916 6.65753 2.07958 6.73972L2 6.82192C2 6.82192 2 6.90411 2 6.9863C2 7.06849 2 7.15068 2.07958 7.31506C2.47746 8.30136 2.9549 9.28767 3.43236 10.274C3.90981 11.1781 4.38726 12 4.70556 12.5753C5.10344 13.1507 5.42174 13.726 5.81961 14.2192C6.21749 14.7123 6.45621 15.0411 6.53578 15.2055C6.69493 15.3699 6.7745 15.4521 6.85408 15.5342L7.09282 15.7808C7.25197 15.9452 7.49069 16.1918 7.80899 16.4384C8.12729 16.6849 8.52516 16.9315 8.92304 17.1781C9.32092 17.4247 9.79838 17.5891 10.2758 17.7534C10.8329 17.9178 11.3103 18 11.7878 17.9178H12.9814C13.2201 17.9178 13.3793 17.8356 13.5384 17.6712L13.618 17.589C13.618 17.5068 13.6975 17.5069 13.6975 17.4247C13.6975 17.3425 13.6975 17.2603 13.6975 17.0959C13.6975 16.7671 13.6976 16.5206 13.7771 16.274C13.8567 16.0274 13.8567 15.863 13.9363 15.6986C14.0159 15.5343 14.0954 15.4521 14.175 15.3699C14.2546 15.2877 14.3342 15.2055 14.3342 15.2055H14.4137C14.5729 15.1233 14.8116 15.2055 14.9708 15.3699C15.2095 15.5342 15.4482 15.7808 15.6073 16.0274C15.7665 16.274 16.0052 16.5206 16.3235 16.8493C16.6418 17.1781 16.8806 17.4247 17.0397 17.5069L17.2784 17.6712C17.4376 17.7534 17.5967 17.8356 17.8355 17.9178C18.0742 18 18.2333 18 18.3925 18L21.0981 17.9178C21.3368 17.9178 21.5755 17.8356 21.7346 17.7534C21.8938 17.6712 21.9734 17.589 21.9734 17.4247C21.9734 17.3425 21.9734 17.1781 21.9734 17.0959C21.8142 16.9315 21.8142 16.8493 21.8142 16.7671Z" fill="#ADB9CA"/>
</svg>
