<svg width="30" height="30" viewBox="0 0 30 30" fill="none" xmlns="http://www.w3.org/2000/svg">
<path d="M18.9114 14.4479L15.806 11.0665L12.3556 14.1028L15.461 17.5532L18.9114 14.4479Z" fill="#137ABE"/>
<path d="M9.87136 8.30617L12.9767 11.6875L16.4271 8.65121L13.3217 5.26984L9.87136 8.30617Z" fill="#137ABE"/>
<path d="M21.3266 20.3135L18.2213 16.9321L14.7709 20.0375L17.8762 23.4188L21.3266 20.3135Z" fill="#137ABE"/>
<path d="M17.7382 25.9721L12.0796 19.6924L13.6668 18.3123L9.66434 13.8958L11.2515 12.5156L7.24907 8.09915L13.5288 2.50953L15.53 4.64877L18.9804 1.68144L20.9816 3.75167L22.2927 2.57854C22.0167 2.44052 21.6717 2.2335 21.3956 2.09548C19.3944 1.26739 17.2552 0.715332 14.9779 0.715332C7.04205 0.715332 0.555328 7.13304 0.555328 14.9999C0.555328 22.8668 7.04205 29.2845 15.0469 29.2845C17.6692 29.2845 20.0845 28.5944 22.1547 27.4213C22.8448 27.0072 23.4659 26.5932 24.0869 26.1791L21.1886 22.9358L17.7382 25.9721Z" fill="#137ABE"/>
<path d="M16.2201 6.64999L18.4973 9.20327L21.1196 6.92602L18.7733 4.37274L16.2201 6.64999Z" fill="#137ABE"/>
<path d="M23.4659 12.0326L21.1196 9.4793L18.5663 11.8256L20.9126 14.3098L23.4659 12.0326Z" fill="#137ABE"/>
<path d="M25.6741 17.4152L23.3278 14.8619L20.7746 17.1391L23.1208 19.7614L25.6741 17.4152Z" fill="#137ABE"/>
<path d="M25.8121 8.99625L24.0869 10.5144L25.6741 12.2396L27.3303 10.7214L25.8121 8.99625Z" fill="#137ABE"/>
<path d="M26.2952 15.552L27.8133 17.2772L29.5385 15.759L27.9514 14.0338L26.2952 15.552Z" fill="#137ABE"/>
<path d="M21.8787 5.47686L23.4659 7.20205L25.122 5.68388L23.6039 3.95869L21.8787 5.47686Z" fill="#137ABE"/>
<path d="M23.0518 22.3147L25.3981 24.868L27.9514 22.5908L25.6051 20.0375L23.0518 22.3147Z" fill="#137ABE"/>
</svg>
