<svg width="43" height="32" viewBox="0 0 43 32" fill="none" xmlns="http://www.w3.org/2000/svg">
<path d="M21.2762 4C23.1486 4 24.9301 4.43561 26.5287 5.21483C26.7794 5.32968 27.0317 5.46715 27.2816 5.60473L26.1855 6.59068L24.5422 4.87133L21.7107 7.39275L20.0433 5.58153L14.8366 10.2811L18.1701 13.9719L16.8687 15.1178L20.1576 18.8085L18.8561 19.954L23.5606 25.2037L26.345 22.6361L28.7668 25.3877C28.2868 25.7545 27.7616 26.122 27.1913 26.4424C25.4555 27.428 23.4456 28 21.2993 28C14.6991 28 9.33339 22.614 9.33339 15.9897C9.31008 9.41011 14.6767 4 21.2762 4ZM19.0836 15.2556L21.9382 12.688L24.4964 15.5534L21.6412 18.1207L19.0836 15.2556ZM21.1166 20.2073L23.948 17.6169L26.5287 20.4821L23.6739 23.0498L21.1166 20.2073ZM17.0524 10.3731L19.9062 7.80551L22.4638 10.6709L19.609 13.2384L17.0524 10.3731ZM22.2808 8.99724L24.4047 7.07176L26.3234 9.20374L24.1995 11.152L22.2808 8.99724ZM26.072 17.8228L28.1953 15.8972L30.1138 18.0515L27.9898 19.9783L26.072 17.8228ZM27.9443 22.1558L30.0684 20.2299L31.9854 22.3617L29.8622 24.3097L27.9443 22.1558ZM28.8122 12.2524L30.2279 10.9685L31.5063 12.3903L30.0909 13.6737L28.8122 12.2524ZM26.9853 8.01152L28.4011 6.70517L29.6804 8.14911L28.2636 9.43284L26.9853 8.01152ZM30.6161 16.4936L32.0317 15.2099L33.3333 16.6312L31.8952 17.9146L30.6161 16.4936ZM24.245 13.3071L26.369 11.3815L28.2868 13.5131L26.1637 15.439L24.245 13.3071Z" fill="#036CB5"/>
</svg>
