<svg width="43" height="32" viewBox="0 0 43 32" fill="none" xmlns="http://www.w3.org/2000/svg">
<g clip-path="url(#clip0)">
<path d="M12.0003 14.8417C12.0003 13.4635 12.1158 12.5889 14.97 10.4583C17.3329 8.69442 24.9069 2.66676 24.9069 2.66676V12.7289H30.6668V27.2108H13.7993C12.8099 27.2108 12 26.4009 12 25.4114L12.0003 14.8417Z" fill="#FCCB06"/>
<path d="M24.9069 12.7289V18.5591L14.3229 25.7696L27.7046 21.4156V12.7289H24.9069Z" fill="#CFA705"/>
<path d="M20.0703 12.4273C20.6892 11.6898 21.5931 11.4295 22.0895 11.8459C22.5858 12.2625 22.4866 13.1981 21.8676 13.9356C21.249 14.673 20.3448 14.9331 19.8485 14.5165C19.3521 14.1001 19.4516 13.1647 20.0703 12.4273Z" fill="#231F20"/>
</g>
<defs>
<clipPath id="clip0">
<rect width="18.6667" height="24.5441" fill="white" transform="translate(12 2.66667)"/>
</clipPath>
</defs>
</svg>
