<svg width="27" height="26" viewBox="0 0 27 26" fill="none" xmlns="http://www.w3.org/2000/svg">
<path d="M26.51 10.6984C26.372 9.87035 25.6129 9.31829 24.5778 9.31829C24.2328 9.31829 23.9567 9.31829 23.6117 9.31829C22.9906 9.24928 22.8526 9.45631 22.8526 9.93936C22.8526 12.3546 22.8526 14.7009 22.8526 17.1162C22.8526 18.3583 21.6105 19.6694 20.1613 19.9455C15.6068 20.9806 11.0523 21.9467 6.4978 22.9818C6.01475 23.1198 5.46269 23.1198 4.91063 23.1198C4.70361 23.1198 4.35857 22.9818 4.28957 22.7748C4.22056 22.6368 4.42758 22.3607 4.56559 22.2227C4.77262 22.0847 5.04865 21.9467 5.32468 21.8087C6.15277 21.5326 7.04986 21.2566 7.87795 20.9806C11.2593 19.8765 14.6407 18.7723 18.0221 17.5992C19.5403 17.1162 20.3683 16.081 20.3683 14.7699C20.4373 10.6294 20.3683 6.41997 20.3683 2.27951C20.3683 1.58944 20.0233 1.03738 19.2642 0.761347C18.3671 0.416309 17.539 0.692335 16.7799 1.03737C11.9494 3.31463 7.18788 5.59188 2.35734 7.86913C0.977188 8.55921 0.149109 9.52531 0.149109 10.9055C0.149109 14.8389 0.149109 18.7723 0.149109 22.7058C0.149109 22.9128 0.149092 23.1198 0.2181 23.2578C0.701153 24.569 1.94331 25.3971 3.59949 25.3971C6.98087 25.3971 10.3622 25.3971 13.7436 25.3971C17.125 25.3971 20.4373 25.3971 23.8187 25.3971C24.5778 25.3971 25.1989 25.2591 25.7509 24.776C26.441 24.2239 26.441 23.4649 26.441 22.7748C26.441 18.9104 26.441 15.1149 26.441 11.2505C26.579 11.1815 26.579 10.9055 26.51 10.6984ZM12.4325 9.45631C12.7775 8.55921 13.5366 8.00715 14.6407 7.86913C15.3998 7.80013 16.0209 8.21417 16.1589 8.90425C16.2969 9.93936 15.0547 11.1815 13.7436 11.1815C12.7085 11.1815 12.0874 10.4224 12.4325 9.45631Z" fill="#E47418"/>
</svg>
